<?xml version="1.0" encoding="utf-8"?>
<!-- Generator: Adobe Illustrator 16.0.0, SVG Export Plug-In . SVG Version: 6.00 Build 0)  -->
<!DOCTYPE svg PUBLIC "-//W3C//DTD SVG 1.0//EN" "http://www.w3.org/TR/2001/REC-SVG-20010904/DTD/svg10.dtd" [
	<!ENTITY ns_extend "http://ns.adobe.com/Extensibility/1.0/">
	<!ENTITY ns_ai "http://ns.adobe.com/AdobeIllustrator/10.0/">
	<!ENTITY ns_graphs "http://ns.adobe.com/Graphs/1.0/">
	<!ENTITY ns_vars "http://ns.adobe.com/Variables/1.0/">
	<!ENTITY ns_imrep "http://ns.adobe.com/ImageReplacement/1.0/">
	<!ENTITY ns_sfw "http://ns.adobe.com/SaveForWeb/1.0/">
	<!ENTITY ns_custom "http://ns.adobe.com/GenericCustomNamespace/1.0/">
	<!ENTITY ns_adobe_xpath "http://ns.adobe.com/XPath/1.0/">
]>
<svg version="1.0" id="Layer_1" xmlns:x="&ns_extend;" xmlns:i="&ns_ai;" xmlns:graph="&ns_graphs;"
	 xmlns="http://www.w3.org/2000/svg" xmlns:xlink="http://www.w3.org/1999/xlink" x="0px" y="0px" width="1024px" height="1024px"
	 viewBox="0 0 1024 1024" enable-background="new 0 0 1024 1024" xml:space="preserve">
<metadata>
	<sfw  xmlns="&ns_sfw;">
		<slices></slices>
		<sliceSourceBounds  height="1023" y="0.5" x="-0.5" width="1016.125" bottomLeftOrigin="true"></sliceSourceBounds>
	</sfw>
</metadata>
<path d="M0,976c0,12.172,4.126,24.39,14.125,32.875C24.767,1017.758,35.673,1024,47.771,1024h15.924H955.43
	c35.035,0,60.695-21.595,60.695-48s-25.66-48-60.695-48H95.543V64c0-35.187-21.491-63-47.771-63S0,28.813,0,64v896V976z
	 M959.414,171.309c0-51.777-41.993-93.785-93.785-93.785s-93.785,42.008-93.785,93.785c0,30.804,15.066,57.898,38.01,75.009
	l-73.24,238.004c-18.758,0.809-36.039,6.961-50.373,17.204l-168.244-117.78c2.198-7.97,3.755-16.197,3.755-24.867
	c0-51.778-41.994-93.785-93.785-93.785s-93.785,42.007-93.785,93.785c0,29.095,13.54,54.783,34.344,71.986L303.727,609.05
	c-0.274,0-0.533-0.077-0.809-0.077c-51.793,0-93.785,42.008-93.785,93.785c0,51.778,41.992,93.785,93.785,93.785
	c51.792,0,93.785-42.007,93.785-93.785c0-29.096-13.54-54.77-34.343-71.986l64.779-178.185c0.29,0,0.548,0.077,0.825,0.077
	c20.303,0,38.984-6.626,54.343-17.601l168.244,117.78c-2.198,7.97-3.755,16.197-3.755,24.867c0,51.778,41.993,93.785,93.785,93.785
	s93.785-42.007,93.785-93.785c0-30.804-15.066-57.898-38.01-75.009l73.24-238.004C919.512,262.561,959.414,221.727,959.414,171.309z
	"/>
</svg>
