<?xml version="1.0" encoding="utf-8"?>
<!-- Generator: Adobe Illustrator 16.0.0, SVG Export Plug-In . SVG Version: 6.00 Build 0)  -->
<!DOCTYPE svg PUBLIC "-//W3C//DTD SVG 1.0//EN" "http://www.w3.org/TR/2001/REC-SVG-20010904/DTD/svg10.dtd" [
	<!ENTITY ns_extend "http://ns.adobe.com/Extensibility/1.0/">
	<!ENTITY ns_ai "http://ns.adobe.com/AdobeIllustrator/10.0/">
	<!ENTITY ns_graphs "http://ns.adobe.com/Graphs/1.0/">
	<!ENTITY ns_vars "http://ns.adobe.com/Variables/1.0/">
	<!ENTITY ns_imrep "http://ns.adobe.com/ImageReplacement/1.0/">
	<!ENTITY ns_sfw "http://ns.adobe.com/SaveForWeb/1.0/">
	<!ENTITY ns_custom "http://ns.adobe.com/GenericCustomNamespace/1.0/">
	<!ENTITY ns_adobe_xpath "http://ns.adobe.com/XPath/1.0/">
]>
<svg version="1.0" id="Layer_1" xmlns:x="&ns_extend;" xmlns:i="&ns_ai;" xmlns:graph="&ns_graphs;"
	 xmlns="http://www.w3.org/2000/svg" xmlns:xlink="http://www.w3.org/1999/xlink" x="0px" y="0px" width="1024px" height="1024px"
	 viewBox="0 0 1024 1024" enable-background="new 0 0 1024 1024" xml:space="preserve">
<metadata>
	<sfw  xmlns="&ns_sfw;">
		<slices></slices>
		<sliceSourceBounds  width="1024.198" height="1024" y="-1024" x="0" bottomLeftOrigin="true"></sliceSourceBounds>
	</sfw>
</metadata>
<path fill="none" d="M323.078,362.861c17.593,0,33.943-5.446,47.41-14.787l134.836,80.713c-0.232,2.255-0.389,4.435-0.389,6.77
	c0,46.082,37.449,83.517,83.61,83.517c46.091,0,83.537-37.436,83.537-83.517c0-10.429-2.026-20.392-5.528-29.652l156.324-167.732
	l91.86,79.39l55.51-295.532l-284.469,97.602l81.202,70.205l-154.38,165.708c-7.628-2.337-15.723-3.578-24.057-3.578
	c-16.731,0-32.31,4.979-45.308,13.385L406.453,283.55c0.08-1.402,0.235-2.801,0.235-4.284c0-46.075-37.447-83.514-83.61-83.514
	c-46.088,0-83.535,37.439-83.535,83.514c0,8.02,1.17,15.727,3.271,23.043L131.488,404.582v100.327l160.998-147.886
	C301.978,360.761,312.259,362.861,323.078,362.861z M323.078,662.678c23.046,0,43.986-9.338,59.09-24.438l240.086,89.51
	c4.207,42.125,39.86,75.049,83.144,75.049c46.168,0,83.534-37.362,83.534-83.536c0-11.288-2.257-22.029-6.305-31.837
	l140.755-159.868l54.34,41.876l26.231-200.89l-187.694,76.354l48.504,37.441L727.122,638.702
	c-6.933-1.866-14.172-2.955-21.725-2.955c-22.182,0-42.271,8.64-57.215,22.805l-242.269-90.287
	c-5.374-41.018-40.332-72.696-82.835-72.696c-46.088,0-83.535,37.438-83.535,83.59c0,2.26,0.156,4.599,0.311,6.775l-108.366,66.704
	v86.782l146.36-90.053C290.927,657.776,306.419,662.678,323.078,662.678z M54.084,970.013L54.084,970.013V0.256L0,0v1024h1024.198
	l-0.173-53.987H54.084z"/>
<g>
</g>
<g>
</g>
<g>
</g>
<g>
</g>
<g>
</g>
<g>
</g>
</svg>
