<?xml version="1.0" encoding="utf-8"?>
<!-- Generator: Adobe Illustrator 16.0.0, SVG Export Plug-In . SVG Version: 6.00 Build 0)  -->
<!DOCTYPE svg PUBLIC "-//W3C//DTD SVG 1.0//EN" "http://www.w3.org/TR/2001/REC-SVG-20010904/DTD/svg10.dtd" [
	<!ENTITY ns_extend "http://ns.adobe.com/Extensibility/1.0/">
	<!ENTITY ns_ai "http://ns.adobe.com/AdobeIllustrator/10.0/">
	<!ENTITY ns_graphs "http://ns.adobe.com/Graphs/1.0/">
	<!ENTITY ns_vars "http://ns.adobe.com/Variables/1.0/">
	<!ENTITY ns_imrep "http://ns.adobe.com/ImageReplacement/1.0/">
	<!ENTITY ns_sfw "http://ns.adobe.com/SaveForWeb/1.0/">
	<!ENTITY ns_custom "http://ns.adobe.com/GenericCustomNamespace/1.0/">
	<!ENTITY ns_adobe_xpath "http://ns.adobe.com/XPath/1.0/">
]>
<svg version="1.0" id="Layer_1" xmlns:x="&ns_extend;" xmlns:i="&ns_ai;" xmlns:graph="&ns_graphs;"
	 xmlns="http://www.w3.org/2000/svg" xmlns:xlink="http://www.w3.org/1999/xlink" x="0px" y="0px" width="1024px" height="1024px"
	 viewBox="0 0 1024 1024" enable-background="new 0 0 1024 1024" xml:space="preserve">
<metadata>
	<sfw  xmlns="&ns_sfw;">
		<slices></slices>
		<sliceSourceBounds  height="1023.085" y="-1022.585" x="-0.5" width="1023.032" bottomLeftOrigin="true"></sliceSourceBounds>
	</sfw>
</metadata>
<path stroke="#FFFFFF" stroke-miterlimit="10" d="M340.67,778.732c0,26.902-21.792,48.67-48.67,48.67h-48.671
	c-26.878,0-48.67-21.768-48.67-48.67V730.06c0-26.901,21.792-48.671,48.67-48.671H292c26.878,0,48.67,21.77,48.67,48.671V778.732z
	 M340.67,584.048c0,26.902-21.792,48.671-48.67,48.671h-48.671c-26.878,0-48.67-21.769-48.67-48.671v-48.67
	c0-26.902,21.792-48.671,48.67-48.671H292c26.878,0,48.67,21.769,48.67,48.671V584.048z M584.001,778.732
	c0,26.902-21.793,48.67-48.67,48.67h-48.672c-26.877,0-48.671-21.768-48.671-48.67V730.06c0-26.901,21.794-48.671,48.671-48.671
	h48.672c26.877,0,48.67,21.77,48.67,48.671V778.732z M584.001,584.048c0,26.902-21.793,48.671-48.67,48.671h-48.672
	c-26.877,0-48.671-21.769-48.671-48.671v-48.67c0-26.902,21.794-48.671,48.671-48.671h48.672c26.877,0,48.67,21.769,48.67,48.671
	V584.048z M827.308,778.732c0,26.902-21.769,48.67-48.671,48.67h-48.671c-26.808,0-48.623-21.768-48.623-48.67V730.06
	c0-26.901,21.815-48.671,48.623-48.671h48.671c26.902,0,48.671,21.77,48.671,48.671V778.732z M827.308,584.048
	c0,26.902-21.769,48.671-48.671,48.671h-48.671c-26.808,0-48.623-21.769-48.623-48.671v-48.67c0-26.902,21.815-48.671,48.623-48.671
	h48.671c26.902,0,48.671,21.769,48.671,48.671V584.048z M1021.99,194.682c0-97.341-97.342-97.341-97.342-97.341h-48.671v146.012
	c0,53.995-44.772,93.73-97.341,93.73c-52.569,0-97.294-44.204-97.294-98.196V97.341H340.67v141.545
	c0,53.993-44.771,98.196-97.341,98.196c-52.567,0-97.341-44.204-97.341-98.196V97.341H97.341c0,0-96.962,0-97.152,97.341
	C0,292.023,0,827.402,0,924.743c0,97.342,97.341,97.342,97.341,97.342h827.308c0,0,97.246,0,97.342-97.342
	C1022.085,827.402,1021.99,292.023,1021.99,194.682z M924.648,876.073c0,31.464-18.061,48.67-48.671,48.67H145.988
	c-30.539,0-48.647-17.206-48.647-48.67V438.037c0-31.417,18.109-48.67,48.647-48.67h729.989c30.61,0,48.671,17.253,48.671,48.67
	V876.073z M340.67,535.378v48.67c0,26.902-21.792,48.671-48.67,48.671h-48.671c-26.878,0-48.67-21.769-48.67-48.671v-48.67
	c0-26.902,21.792-48.671,48.67-48.671H292C318.878,486.707,340.67,508.476,340.67,535.378z M340.67,730.06v48.673
	c0,26.902-21.792,48.67-48.67,48.67h-48.671c-26.878,0-48.67-21.768-48.67-48.67V730.06c0-26.901,21.792-48.671,48.67-48.671H292
	C318.878,681.389,340.67,703.158,340.67,730.06z M584.001,730.06v48.673c0,26.902-21.793,48.67-48.67,48.67h-48.672
	c-26.877,0-48.671-21.768-48.671-48.67V730.06c0-26.901,21.794-48.671,48.671-48.671h48.672
	C562.208,681.389,584.001,703.158,584.001,730.06z M827.308,730.06v48.673c0,26.902-21.769,48.67-48.671,48.67h-48.671
	c-26.808,0-48.623-21.768-48.623-48.67V730.06c0-26.901,21.815-48.671,48.623-48.671h48.671
	C805.539,681.389,827.308,703.158,827.308,730.06z M584.001,535.378v48.67c0,26.902-21.793,48.671-48.67,48.671h-48.672
	c-26.877,0-48.671-21.769-48.671-48.671v-48.67c0-26.902,21.794-48.671,48.671-48.671h48.672
	C562.208,486.707,584.001,508.476,584.001,535.378z M827.308,535.378v48.67c0,26.902-21.769,48.671-48.671,48.671h-48.671
	c-26.808,0-48.623-21.769-48.623-48.671v-48.67c0-26.902,21.815-48.671,48.623-48.671h48.671
	C805.539,486.707,827.308,508.476,827.308,535.378z M194.659,194.682V48.67c0-26.902,21.792-48.67,48.67-48.67
	C270.208,0,292,21.769,292,48.67v146.012c0,26.902-21.792,48.67-48.671,48.67C216.451,243.353,194.659,221.584,194.659,194.682z
	 M729.966,194.682V48.67c0-26.902,21.816-48.67,48.671-48.67c26.902,0,48.671,21.769,48.671,48.67v146.012
	c0,26.902-21.769,48.67-48.671,48.67C751.782,243.353,729.966,221.584,729.966,194.682z"/>
<g>
</g>
<g>
</g>
<g>
</g>
<g>
</g>
<g>
</g>
<g>
</g>
</svg>
