<?xml version="1.0" encoding="utf-8"?>
<!-- Generator: Adobe Illustrator 16.0.0, SVG Export Plug-In . SVG Version: 6.00 Build 0)  -->
<!DOCTYPE svg PUBLIC "-//W3C//DTD SVG 1.0//EN" "http://www.w3.org/TR/2001/REC-SVG-20010904/DTD/svg10.dtd" [
	<!ENTITY ns_extend "http://ns.adobe.com/Extensibility/1.0/">
	<!ENTITY ns_ai "http://ns.adobe.com/AdobeIllustrator/10.0/">
	<!ENTITY ns_graphs "http://ns.adobe.com/Graphs/1.0/">
	<!ENTITY ns_vars "http://ns.adobe.com/Variables/1.0/">
	<!ENTITY ns_imrep "http://ns.adobe.com/ImageReplacement/1.0/">
	<!ENTITY ns_sfw "http://ns.adobe.com/SaveForWeb/1.0/">
	<!ENTITY ns_custom "http://ns.adobe.com/GenericCustomNamespace/1.0/">
	<!ENTITY ns_adobe_xpath "http://ns.adobe.com/XPath/1.0/">
]>
<svg version="1.0" id="Layer_1" xmlns:x="&ns_extend;" xmlns:i="&ns_ai;" xmlns:graph="&ns_graphs;"
	 xmlns="http://www.w3.org/2000/svg" xmlns:xlink="http://www.w3.org/1999/xlink" x="0px" y="0px" width="1024px" height="1024px"
	 viewBox="0 0 1024 1024" enable-background="new 0 0 1024 1024" xml:space="preserve">
<metadata>
	<sfw  xmlns="&ns_sfw;">
		<slices></slices>
		<sliceSourceBounds  height="1012.375" y="-1017.688" x="5.312" width="1012.375" bottomLeftOrigin="true"></sliceSourceBounds>
	</sfw>
</metadata>
<path fill="none" d="M929.769,252.376l-88.816,319.698c11.763,19.209,18.552,41.798,18.552,65.973
	c0,69.882-56.665,126.547-126.547,126.547c-69.518,0-125.935-56.087-126.52-125.47L371.199,513.661
	c-21.19,17.734-48.271,28.637-77.878,29.393l-91.097,242.907c33.874,22.709,56.182,61.34,56.182,105.18
	c0,69.882-56.665,126.547-126.547,126.547S5.312,961.022,5.312,891.141c0-61.719,44.21-113.098,102.68-124.27l96.419-257.133
	c-25.146-23.129-40.916-56.296-40.916-93.148c0-69.882,56.665-126.547,126.547-126.547S416.59,346.708,416.59,416.59
	c0,4.502-0.245,8.945-0.703,13.327l225.87,120.459c23.023-23.948,55.361-38.876,91.2-38.876c8.775,0,17.343,0.897,25.613,2.598
	l74.88-269.621c-40.868-20.982-68.856-63.521-68.856-112.617c0-69.882,56.665-126.547,126.547-126.547
	s126.547,56.665,126.547,126.547C1017.688,188.266,980.759,236.042,929.769,252.376z"/>
<g>
</g>
<g>
</g>
<g>
</g>
<g>
</g>
<g>
</g>
<g>
</g>
</svg>
