<?xml version="1.0" encoding="utf-8"?>
<!-- Generator: Adobe Illustrator 16.0.0, SVG Export Plug-In . SVG Version: 6.00 Build 0)  -->
<!DOCTYPE svg PUBLIC "-//W3C//DTD SVG 1.0//EN" "http://www.w3.org/TR/2001/REC-SVG-20010904/DTD/svg10.dtd" [
	<!ENTITY ns_extend "http://ns.adobe.com/Extensibility/1.0/">
	<!ENTITY ns_ai "http://ns.adobe.com/AdobeIllustrator/10.0/">
	<!ENTITY ns_graphs "http://ns.adobe.com/Graphs/1.0/">
	<!ENTITY ns_vars "http://ns.adobe.com/Variables/1.0/">
	<!ENTITY ns_imrep "http://ns.adobe.com/ImageReplacement/1.0/">
	<!ENTITY ns_sfw "http://ns.adobe.com/SaveForWeb/1.0/">
	<!ENTITY ns_custom "http://ns.adobe.com/GenericCustomNamespace/1.0/">
	<!ENTITY ns_adobe_xpath "http://ns.adobe.com/XPath/1.0/">
]>
<svg version="1.0" id="Layer_1" xmlns:x="&ns_extend;" xmlns:i="&ns_ai;" xmlns:graph="&ns_graphs;"
	 xmlns="http://www.w3.org/2000/svg" xmlns:xlink="http://www.w3.org/1999/xlink" x="0px" y="0px" width="1024px" height="1024px"
	 viewBox="0 0 1024 1024" enable-background="new 0 0 1024 1024" xml:space="preserve">
<metadata>
	<sfw  xmlns="&ns_sfw;">
		<slices></slices>
		<sliceSourceBounds  width="1024" height="1024" y="-1024" x="0" bottomLeftOrigin="true"></sliceSourceBounds>
	</sfw>
</metadata>
<path fill="#EC443C" d="M512,1024C229.689,1024,0,794.283,0,512C0,229.689,229.689,0,512,0c282.283,0,512,229.689,512,512
	C1024,794.283,794.283,1024,512,1024z M512,97.525C283.455,97.525,97.525,283.455,97.525,512
	c0,228.571,185.93,414.475,414.475,414.475c228.572,0,414.475-185.903,414.475-414.475C926.475,283.455,740.572,97.525,512,97.525z
	 M783,464.667l-64.142-12.048c-3.91-0.764-9.002-1.382-14.195-1.952c-2.664-7.811-5.88-15.381-9.499-22.763
	c3.289-4.049,6.371-8.095,8.657-11.431l36.758-53.759c5.902-8.665,4.664-21.905-2.766-29.286l-39.43-39.476
	c-7.429-7.429-20.67-8.668-29.291-2.762l-53.807,36.763c-3.289,2.33-7.382,5.427-11.478,8.665
	c-7.284-3.62-14.854-6.761-22.688-9.476c-0.574-5.143-1.24-10.19-1.979-14.095l-12.048-64.693
	C565.141,238.023,554.949,229,544.427,229h-55.761c-10.525,0-20.716,9.023-22.668,19.356l-12.045,64.398
	c-0.739,3.903-1.405,9.1-1.976,14.242c-7.929,2.763-15.621,6.07-23.07,9.689c-3.049-2.38-5.977-4.579-8.503-6.291l-56.426-39.081
	c-8.645-6-21.834-4.798-29.287,2.63l-39.431,39.48c-7.429,7.381-8.618,20.575-2.641,29.244l39.097,56.379
	c1.763,2.573,3.998,5.525,6.378,8.571c-3.738,7.523-7.023,15.337-9.735,23.381c-3.859,0.479-7.476,0.999-10.501,1.526
	l-67.799,12.285C239.726,466.714,231,476.857,231,487.333v55.811c0,10.522,8.726,20.619,19.059,22.523l67.675,12.285
	c3.025,0.523,6.706,1.047,10.562,1.523c2.715,8.047,6.053,15.857,9.768,23.428c-2.381,3.002-4.601,5.953-6.364,8.479l-39.086,56.427
	c-5.977,8.665-4.785,21.808,2.644,29.284l39.431,39.431c7.453,7.476,20.646,8.617,29.291,2.616l56.427-39.045
	c2.526-1.764,5.454-4.002,8.502-6.379c7.57,3.663,15.378,6.949,23.428,9.711c0.453,3.856,0.973,7.477,1.52,10.522l12.265,67.43
	C468,791.711,478.141,800,488.666,800h55.761c10.522,0,20.666-8.289,22.551-18.621l12.258-67.501
	c0.598-3.045,1.074-6.632,1.526-10.487c7.905-2.716,15.621-5.883,23.047-9.503c4.096,3.188,8.188,6.293,11.478,8.626l53.806,36.763
	c8.621,5.909,21.861,4.721,29.29-2.756l39.428-39.428c7.43-7.477,8.665-20.619,2.763-29.331l-36.764-53.763
	c-2.286-3.332-5.379-7.381-8.668-11.43c3.62-7.382,6.811-14.953,9.476-22.76c5.193-0.574,10.238-1.287,14.145-1.952L783,565.81
	c10.332-2,19-12.144,19-22.666v-55.811C802,476.857,793.332,466.619,783,464.667z M516.549,610.809
	c-52.834,0-95.621-42.764-95.621-95.57c0-52.81,42.787-95.57,95.621-95.57c52.833,0,95.641,42.761,95.641,95.57
	C612.189,568.045,569.382,610.809,516.549,610.809z"/>
<g>
</g>
<g>
</g>
<g>
</g>
<g>
</g>
<g>
</g>
<g>
</g>
</svg>
