<?xml version="1.0" encoding="utf-8"?>
<!-- Generator: Adobe Illustrator 16.0.0, SVG Export Plug-In . SVG Version: 6.00 Build 0)  -->
<!DOCTYPE svg PUBLIC "-//W3C//DTD SVG 1.0//EN" "http://www.w3.org/TR/2001/REC-SVG-20010904/DTD/svg10.dtd" [
	<!ENTITY ns_extend "http://ns.adobe.com/Extensibility/1.0/">
	<!ENTITY ns_ai "http://ns.adobe.com/AdobeIllustrator/10.0/">
	<!ENTITY ns_graphs "http://ns.adobe.com/Graphs/1.0/">
	<!ENTITY ns_vars "http://ns.adobe.com/Variables/1.0/">
	<!ENTITY ns_imrep "http://ns.adobe.com/ImageReplacement/1.0/">
	<!ENTITY ns_sfw "http://ns.adobe.com/SaveForWeb/1.0/">
	<!ENTITY ns_custom "http://ns.adobe.com/GenericCustomNamespace/1.0/">
	<!ENTITY ns_adobe_xpath "http://ns.adobe.com/XPath/1.0/">
]>
<svg version="1.0" id="Layer_1" xmlns:x="&ns_extend;" xmlns:i="&ns_ai;" xmlns:graph="&ns_graphs;"
	 xmlns="http://www.w3.org/2000/svg" xmlns:xlink="http://www.w3.org/1999/xlink" x="0px" y="0px" width="1024px" height="1024px"
	 viewBox="0 0 1024 1024" enable-background="new 0 0 1024 1024" xml:space="preserve">
<metadata>
	<sfw  xmlns="&ns_sfw;">
		<slices></slices>
		<sliceSourceBounds  height="1016.555" y="-1020.277" x="3.723" width="1016.555" bottomLeftOrigin="true"></sliceSourceBounds>
	</sfw>
</metadata>
<path d="M875.033,3.723H148.947C68.746,3.723,3.723,68.746,3.723,148.947v726.086c0,80.221,65.023,145.244,145.225,145.244h726.086
	c80.221,0,145.244-65.023,145.244-145.244V148.947C1020.277,68.746,955.254,3.723,875.033,3.723z M722.84,611.502
	c30.928,30.965,30.928,81.174,0,112.141c-30.928,30.965-81.098,30.965-112.025,0l-99.291-99.389l-99.35,99.426
	c-30.928,31.004-81.1,31.004-112.045,0c-30.928-30.926-30.928-81.174,0-112.102l99.35-99.445l-99.35-99.406
	c-30.928-30.965-30.928-81.174,0-112.141c30.945-30.965,81.117-30.965,112.045,0l99.35,99.408l99.291-99.369
	c30.928-30.965,81.098-30.965,112.025,0s30.928,81.174,0,112.141l-99.271,99.367L722.84,611.502z"/>
<g>
</g>
<g>
</g>
<g>
</g>
<g>
</g>
<g>
</g>
<g>
</g>
</svg>
