<?xml version="1.0" encoding="utf-8"?>
<!-- Generator: Adobe Illustrator 16.0.0, SVG Export Plug-In . SVG Version: 6.00 Build 0)  -->
<!DOCTYPE svg PUBLIC "-//W3C//DTD SVG 1.0//EN" "http://www.w3.org/TR/2001/REC-SVG-20010904/DTD/svg10.dtd" [
	<!ENTITY ns_extend "http://ns.adobe.com/Extensibility/1.0/">
	<!ENTITY ns_ai "http://ns.adobe.com/AdobeIllustrator/10.0/">
	<!ENTITY ns_graphs "http://ns.adobe.com/Graphs/1.0/">
	<!ENTITY ns_vars "http://ns.adobe.com/Variables/1.0/">
	<!ENTITY ns_imrep "http://ns.adobe.com/ImageReplacement/1.0/">
	<!ENTITY ns_sfw "http://ns.adobe.com/SaveForWeb/1.0/">
	<!ENTITY ns_custom "http://ns.adobe.com/GenericCustomNamespace/1.0/">
	<!ENTITY ns_adobe_xpath "http://ns.adobe.com/XPath/1.0/">
]>
<svg version="1.0" id="Layer_1" xmlns:x="&ns_extend;" xmlns:i="&ns_ai;" xmlns:graph="&ns_graphs;"
	 xmlns="http://www.w3.org/2000/svg" xmlns:xlink="http://www.w3.org/1999/xlink" x="0px" y="0px" width="1024px" height="1024px"
	 viewBox="0 0 1024 1024" enable-background="new 0 0 1024 1024" xml:space="preserve">
<metadata>
	<sfw  xmlns="&ns_sfw;">
		<slices></slices>
		<sliceSourceBounds  height="1023.678" y="-1023.678" x="0" width="1023.67" bottomLeftOrigin="true"></sliceSourceBounds>
	</sfw>
</metadata>
<path d="M511.835,0C229.16,0,0,229.16,0,511.839c0,282.672,229.16,511.839,511.835,511.839
	c282.676,0,511.835-229.167,511.835-511.839C1023.67,229.16,794.511,0,511.835,0z M739.32,620.013
	c33.306,33.306,33.306,87.284,0,120.59c-33.31,33.273-87.288,33.273-120.597,0L511.909,633.756L404.985,740.641
	c-33.274,33.306-87.292,33.306-120.562,0c-33.309-33.273-33.309-87.283,0-120.558L391.312,513.19L284.423,406.267
	c-33.309-33.305-33.309-87.284,0-120.558c33.271-33.31,87.288-33.31,120.562,0l106.923,106.884l106.815-106.85
	c33.309-33.309,87.287-33.309,120.597,0c33.306,33.31,33.306,87.288,0,120.597L632.467,513.19L739.32,620.013z"/>
<g>
</g>
<g>
</g>
<g>
</g>
<g>
</g>
<g>
</g>
<g>
</g>
</svg>
