<?xml version="1.0" encoding="utf-8"?>
<!-- Generator: Adobe Illustrator 16.0.0, SVG Export Plug-In . SVG Version: 6.00 Build 0)  -->
<!DOCTYPE svg PUBLIC "-//W3C//DTD SVG 1.0//EN" "http://www.w3.org/TR/2001/REC-SVG-20010904/DTD/svg10.dtd" [
	<!ENTITY ns_extend "http://ns.adobe.com/Extensibility/1.0/">
	<!ENTITY ns_ai "http://ns.adobe.com/AdobeIllustrator/10.0/">
	<!ENTITY ns_graphs "http://ns.adobe.com/Graphs/1.0/">
	<!ENTITY ns_vars "http://ns.adobe.com/Variables/1.0/">
	<!ENTITY ns_imrep "http://ns.adobe.com/ImageReplacement/1.0/">
	<!ENTITY ns_sfw "http://ns.adobe.com/SaveForWeb/1.0/">
	<!ENTITY ns_custom "http://ns.adobe.com/GenericCustomNamespace/1.0/">
	<!ENTITY ns_adobe_xpath "http://ns.adobe.com/XPath/1.0/">
]>
<svg version="1.0" id="Layer_1" xmlns:x="&ns_extend;" xmlns:i="&ns_ai;" xmlns:graph="&ns_graphs;"
	 xmlns="http://www.w3.org/2000/svg" xmlns:xlink="http://www.w3.org/1999/xlink" x="0px" y="0px" width="1024px" height="1024px"
	 viewBox="0 0 1024 1024" enable-background="new 0 0 1024 1024" xml:space="preserve">
<metadata>
	<sfw  xmlns="&ns_sfw;">
		<slices></slices>
		<sliceSourceBounds  height="1024" y="-1023.5" x="-0.5" width="1024" bottomLeftOrigin="true"></sliceSourceBounds>
	</sfw>
</metadata>
<path fill="none" d="M511.5-0.5c-282.311,0-512,229.666-512,512s229.689,512,512,512c282.285,0,512-229.666,512-512
	S793.785-0.5,511.5-0.5z M511.5,925.977c-228.547,0-414.477-185.953-414.477-414.477S282.953,97.023,511.5,97.023
	c228.572,0,414.477,185.953,414.477,414.477S740.072,925.977,511.5,925.977z M389.596,511.5c0,40.381-32.738,73.143-73.143,73.143
	c-40.406,0-73.145-32.762-73.145-73.143s32.738-73.143,73.145-73.143C356.857,438.357,389.596,471.119,389.596,511.5z
	 M584.643,511.5c0,40.381-32.738,73.143-73.143,73.143s-73.143-32.762-73.143-73.143s32.738-73.143,73.143-73.143
	S584.643,471.119,584.643,511.5z M779.689,511.5c0,40.381-32.762,73.143-73.143,73.143s-73.143-32.762-73.143-73.143
	s32.762-73.143,73.143-73.143S779.689,471.119,779.689,511.5z"/>
<g>
</g>
<g>
</g>
<g>
</g>
<g>
</g>
<g>
</g>
<g>
</g>
</svg>
