<?xml version="1.0" encoding="utf-8"?>
<!-- Generator: Adobe Illustrator 16.0.0, SVG Export Plug-In . SVG Version: 6.00 Build 0)  -->
<!DOCTYPE svg PUBLIC "-//W3C//DTD SVG 1.0//EN" "http://www.w3.org/TR/2001/REC-SVG-20010904/DTD/svg10.dtd" [
	<!ENTITY ns_extend "http://ns.adobe.com/Extensibility/1.0/">
	<!ENTITY ns_ai "http://ns.adobe.com/AdobeIllustrator/10.0/">
	<!ENTITY ns_graphs "http://ns.adobe.com/Graphs/1.0/">
	<!ENTITY ns_vars "http://ns.adobe.com/Variables/1.0/">
	<!ENTITY ns_imrep "http://ns.adobe.com/ImageReplacement/1.0/">
	<!ENTITY ns_sfw "http://ns.adobe.com/SaveForWeb/1.0/">
	<!ENTITY ns_custom "http://ns.adobe.com/GenericCustomNamespace/1.0/">
	<!ENTITY ns_adobe_xpath "http://ns.adobe.com/XPath/1.0/">
]>
<svg version="1.0" id="Layer_1" xmlns:x="&ns_extend;" xmlns:i="&ns_ai;" xmlns:graph="&ns_graphs;"
	 xmlns="http://www.w3.org/2000/svg" xmlns:xlink="http://www.w3.org/1999/xlink" x="0px" y="0px" width="1024px" height="1024px"
	 viewBox="0 0 1024 1024" enable-background="new 0 0 1024 1024" xml:space="preserve">
<metadata>
	<sfw  xmlns="&ns_sfw;">
		<slices></slices>
		<sliceSourceBounds  y="-993" x="241.606" width="540.787" height="962" bottomLeftOrigin="true"></sliceSourceBounds>
	</sfw>
</metadata>
<path d="M511.896,993c-33.123,0-59.975-26.854-59.975-59.975v-57.724c-112.02-18.944-210.315-91.221-210.315-212.782
	c0-33.184,26.904-60.089,60.087-60.089c33.184,0,60.088,26.905,60.088,60.089c0,77.222,98.259,97.642,150.219,97.642
	s150.219-20.42,150.219-97.642c0-48.412-40.649-65.281-162.806-91.452c-108.807-23.325-257.807-55.246-257.807-208.986
	c0-121.563,98.296-193.839,210.315-212.782V90.975c0-33.123,26.852-59.975,59.975-59.975s59.976,26.852,59.976,59.975v58.29
	c112.106,18.889,210.521,91.179,210.521,212.816c0,33.184-26.904,60.087-60.088,60.087c-33.183,0-60.087-26.904-60.087-60.087
	c0-77.221-98.259-97.642-150.219-97.642s-150.219,20.421-150.219,97.642c0,48.41,40.649,65.28,162.806,91.452
	c108.807,23.325,257.807,55.246,257.807,208.987c0,121.637-98.415,193.927-210.521,212.816v57.689
	C571.872,966.146,545.02,993,511.896,993z"/>
<g>
</g>
<g>
</g>
<g>
</g>
<g>
</g>
<g>
</g>
<g>
</g>
</svg>
