<?xml version="1.0" encoding="utf-8"?>
<!-- Generator: Adobe Illustrator 16.0.0, SVG Export Plug-In . SVG Version: 6.00 Build 0)  -->
<!DOCTYPE svg PUBLIC "-//W3C//DTD SVG 1.0//EN" "http://www.w3.org/TR/2001/REC-SVG-20010904/DTD/svg10.dtd" [
	<!ENTITY ns_extend "http://ns.adobe.com/Extensibility/1.0/">
	<!ENTITY ns_ai "http://ns.adobe.com/AdobeIllustrator/10.0/">
	<!ENTITY ns_graphs "http://ns.adobe.com/Graphs/1.0/">
	<!ENTITY ns_vars "http://ns.adobe.com/Variables/1.0/">
	<!ENTITY ns_imrep "http://ns.adobe.com/ImageReplacement/1.0/">
	<!ENTITY ns_sfw "http://ns.adobe.com/SaveForWeb/1.0/">
	<!ENTITY ns_custom "http://ns.adobe.com/GenericCustomNamespace/1.0/">
	<!ENTITY ns_adobe_xpath "http://ns.adobe.com/XPath/1.0/">
]>
<svg version="1.0" id="Layer_1" xmlns:x="&ns_extend;" xmlns:i="&ns_ai;" xmlns:graph="&ns_graphs;"
	 xmlns="http://www.w3.org/2000/svg" xmlns:xlink="http://www.w3.org/1999/xlink" x="0px" y="0px" width="1024px" height="1024px"
	 viewBox="0 0 1024 1024" enable-background="new 0 0 1024 1024" xml:space="preserve">
<metadata>
	<sfw  xmlns="&ns_sfw;">
		<slices></slices>
		<sliceSourceBounds  height="1024" y="0.5" x="-0.5" width="1024" bottomLeftOrigin="true"></sliceSourceBounds>
	</sfw>
</metadata>
<path d="M230.4,0C103.35,0,0,103.35,0,230.4c0,127.049,103.35,230.4,230.4,230.4c127.049,0,230.4-103.352,230.4-230.4
	C460.801,103.35,357.449,0,230.4,0z M230.4,358.4c-70.576,0-128-57.4-128-128s57.424-128,128-128c70.574,0,128,57.4,128,128
	S300.975,358.4,230.4,358.4z M793.6,0C666.551,0,563.2,103.35,563.2,230.4c0,127.049,103.352,230.4,230.399,230.4
	c127.052,0,230.4-103.352,230.4-230.4C1024,103.35,920.65,0,793.6,0z M793.6,358.4c-70.6,0-128-57.4-128-128s57.4-128,128-128
	c70.601,0,128,57.4,128,128S864.199,358.4,793.6,358.4z M230.4,563.199C103.35,563.199,0,666.551,0,793.6
	C0,920.65,103.35,1024,230.4,1024c127.049,0,230.4-103.35,230.4-230.4C460.801,666.551,357.449,563.199,230.4,563.199z M230.4,921.6
	c-70.576,0-128-57.399-128-128c0-70.6,57.424-128,128-128c70.574,0,128,57.4,128,128C358.4,864.2,300.975,921.6,230.4,921.6z
	 M793.6,563.199c-127.049,0-230.399,103.352-230.399,230.399c0,127.052,103.352,230.4,230.399,230.4
	c127.052,0,230.4-103.35,230.4-230.4C1024,666.551,920.65,563.199,793.6,563.199z M793.6,921.6c-70.6,0-128-57.399-128-128
	c0-70.6,57.4-128,128-128c70.601,0,128,57.4,128,128C921.6,864.2,864.199,921.6,793.6,921.6z"/>
</svg>
