<?xml version="1.0" encoding="utf-8"?>
<!-- Generator: Adobe Illustrator 16.0.0, SVG Export Plug-In . SVG Version: 6.00 Build 0)  -->
<!DOCTYPE svg PUBLIC "-//W3C//DTD SVG 1.0//EN" "http://www.w3.org/TR/2001/REC-SVG-20010904/DTD/svg10.dtd" [
	<!ENTITY ns_extend "http://ns.adobe.com/Extensibility/1.0/">
	<!ENTITY ns_ai "http://ns.adobe.com/AdobeIllustrator/10.0/">
	<!ENTITY ns_graphs "http://ns.adobe.com/Graphs/1.0/">
	<!ENTITY ns_vars "http://ns.adobe.com/Variables/1.0/">
	<!ENTITY ns_imrep "http://ns.adobe.com/ImageReplacement/1.0/">
	<!ENTITY ns_sfw "http://ns.adobe.com/SaveForWeb/1.0/">
	<!ENTITY ns_custom "http://ns.adobe.com/GenericCustomNamespace/1.0/">
	<!ENTITY ns_adobe_xpath "http://ns.adobe.com/XPath/1.0/">
]>
<svg version="1.0" id="Layer_1" xmlns:x="&ns_extend;" xmlns:i="&ns_ai;" xmlns:graph="&ns_graphs;"
	 xmlns="http://www.w3.org/2000/svg" xmlns:xlink="http://www.w3.org/1999/xlink" x="0px" y="0px" width="1024px" height="1024px"
	 viewBox="0 0 1024 1024" enable-background="new 0 0 1024 1024" xml:space="preserve">
<metadata>
	<sfw  xmlns="&ns_sfw;">
		<slices></slices>
		<sliceSourceBounds  height="890.797" y="-957.387" x="-0.505" width="1024.004" bottomLeftOrigin="true"></sliceSourceBounds>
	</sfw>
</metadata>
<path fill="none" d="M760.709,155.625c25.574,0,50.322,5.654,73.766,16.768c87.078,41.342,124.396,146.729,83.25,234.893
	C884.582,478.4,677.111,685.023,511.482,837.342c-165.607-152.232-373.012-358.898-406.242-430.1
	c-41.146-88.121-3.807-193.443,83.293-234.85c23.4-11.113,48.17-16.768,73.701-16.768c66.982,0,128.725,39.645,157.365,100.887
	c0.564,1.262,2.676,6.219,5.328,17.311c9.611,39.949,45.277,102.975,86.338,103.061c0.064,0,0.129,0,0.195,0
	c40.973,0,76.66-62.807,86.402-102.625c2.826-11.484,4.959-16.484,5.523-17.746C632.006,195.227,693.77,155.625,760.709,155.625
	 M760.709,66.59c-98.561,0-193.141,56.283-237.939,152.299c-4.285,9.199-8.025,20.768-11.309,34.164
	c-3.219-13.396-6.938-24.965-11.244-34.164C455.396,122.873,360.859,66.59,262.234,66.59c-37.535,0-75.68,8.178-111.891,25.381
	C19.076,154.363-37.248,312.424,24.623,444.932c61.85,132.572,486.771,512.455,486.771,512.455s0.045-0.521,0.066-1.217
	c0.086,0.695,0.131,1.217,0.131,1.217s424.922-379.883,486.771-512.455c61.85-132.508,5.654-290.568-125.742-352.961
	C836.389,74.768,798.287,66.59,760.709,66.59L760.709,66.59z"/>
<g>
</g>
<g>
</g>
<g>
</g>
<g>
</g>
<g>
</g>
<g>
</g>
</svg>
