<?xml version="1.0" encoding="utf-8"?>
<!-- Generator: Adobe Illustrator 16.0.0, SVG Export Plug-In . SVG Version: 6.00 Build 0)  -->
<!DOCTYPE svg PUBLIC "-//W3C//DTD SVG 1.0//EN" "http://www.w3.org/TR/2001/REC-SVG-20010904/DTD/svg10.dtd" [
	<!ENTITY ns_extend "http://ns.adobe.com/Extensibility/1.0/">
	<!ENTITY ns_ai "http://ns.adobe.com/AdobeIllustrator/10.0/">
	<!ENTITY ns_graphs "http://ns.adobe.com/Graphs/1.0/">
	<!ENTITY ns_vars "http://ns.adobe.com/Variables/1.0/">
	<!ENTITY ns_imrep "http://ns.adobe.com/ImageReplacement/1.0/">
	<!ENTITY ns_sfw "http://ns.adobe.com/SaveForWeb/1.0/">
	<!ENTITY ns_custom "http://ns.adobe.com/GenericCustomNamespace/1.0/">
	<!ENTITY ns_adobe_xpath "http://ns.adobe.com/XPath/1.0/">
]>
<svg version="1.0" id="Layer_1" xmlns:x="&ns_extend;" xmlns:i="&ns_ai;" xmlns:graph="&ns_graphs;"
	 xmlns="http://www.w3.org/2000/svg" xmlns:xlink="http://www.w3.org/1999/xlink" x="0px" y="0px" width="1024px" height="1024px"
	 viewBox="0 0 1024 1024" enable-background="new 0 0 1024 1024" xml:space="preserve">
<metadata>
	<sfw  xmlns="&ns_sfw;">
		<slices></slices>
		<sliceSourceBounds  height="1024" y="-1024.501" x="17.656" width="988.689" bottomLeftOrigin="true"></sliceSourceBounds>
	</sfw>
</metadata>
<path d="M865.104,0.501H229.536c-77.69,0-141.311,63.552-141.311,141.241v105.933c-38.831,0.028-70.569,23.842-70.569,52.964
	c0,29.12,31.738,52.936,70.569,52.964v105.933c-38.831,0.028-70.569,23.844-70.569,52.964c0,29.121,31.738,52.937,70.569,52.965
	v105.934c-38.831,0.028-70.569,23.842-70.569,52.965c0,29.119,31.738,52.937,70.569,52.965v105.931
	c0,77.689,63.62,141.242,141.311,141.242h635.636c77.689,0,141.173-63.553,141.173-141.242V141.742
	C1006.345,64.053,942.828,0.501,865.104,0.501z M900.413,883.259c0,19.139-16.137,35.311-35.241,35.311H229.536
	c-19.139,0-35.381-16.172-35.381-35.311v-105.93h0.07c38.845,0,70.62-23.829,70.62-52.966c0-29.14-31.775-52.966-70.62-52.966h-0.07
	V565.466h0.07c38.845,0,70.62-23.827,70.62-52.966c0-29.137-31.775-52.966-70.62-52.966h-0.07v-105.93h0.07
	c38.845,0,70.62-23.829,70.62-52.965c0-29.139-31.775-52.966-70.62-52.966h-0.07V141.742c0-19.137,16.242-35.309,35.381-35.309
	h635.568c19.137,0,35.31,16.172,35.31,35.309V883.259z M759.242,282.984c0,19.412-31.794,35.309-70.622,35.309H406.104
	c-38.845,0-70.623-15.897-70.623-35.309c0-19.414,31.777-35.311,70.623-35.311H688.62
	C727.448,247.673,759.242,263.57,759.242,282.984z M682.206,424.225c0,19.414-31.792,35.309-70.62,35.309H406.104
	c-38.845,0-70.623-15.895-70.623-35.309s31.777-35.311,70.623-35.311h205.481C650.414,388.914,682.206,404.811,682.206,424.225z
	 M759.242,565.466c0,19.414-31.794,35.312-70.622,35.312H406.104c-38.845,0-70.623-15.897-70.623-35.312s31.777-35.31,70.623-35.31
	H688.62C727.448,530.156,759.242,546.052,759.242,565.466z M682.206,706.707c0,19.414-31.792,35.311-70.62,35.311H406.104
	c-38.845,0-70.623-15.896-70.623-35.311c0-19.413,31.777-35.31,70.623-35.31h205.481
	C650.414,671.397,682.206,687.294,682.206,706.707z"/>
<g>
</g>
<g>
</g>
<g>
</g>
<g>
</g>
<g>
</g>
<g>
</g>
</svg>
