<?xml version="1.0" encoding="utf-8"?>
<!-- Generator: Adobe Illustrator 16.0.0, SVG Export Plug-In . SVG Version: 6.00 Build 0)  -->
<!DOCTYPE svg PUBLIC "-//W3C//DTD SVG 1.0//EN" "http://www.w3.org/TR/2001/REC-SVG-20010904/DTD/svg10.dtd" [
	<!ENTITY ns_extend "http://ns.adobe.com/Extensibility/1.0/">
	<!ENTITY ns_ai "http://ns.adobe.com/AdobeIllustrator/10.0/">
	<!ENTITY ns_graphs "http://ns.adobe.com/Graphs/1.0/">
	<!ENTITY ns_vars "http://ns.adobe.com/Variables/1.0/">
	<!ENTITY ns_imrep "http://ns.adobe.com/ImageReplacement/1.0/">
	<!ENTITY ns_sfw "http://ns.adobe.com/SaveForWeb/1.0/">
	<!ENTITY ns_custom "http://ns.adobe.com/GenericCustomNamespace/1.0/">
	<!ENTITY ns_adobe_xpath "http://ns.adobe.com/XPath/1.0/">
]>
<svg version="1.0" id="Layer_1" xmlns:x="&ns_extend;" xmlns:i="&ns_ai;" xmlns:graph="&ns_graphs;"
	 xmlns="http://www.w3.org/2000/svg" xmlns:xlink="http://www.w3.org/1999/xlink" x="0px" y="0px" width="1024px" height="1024px"
	 viewBox="0 0 1024 1024" enable-background="new 0 0 1024 1024" xml:space="preserve">
<metadata>
	<sfw  xmlns="&ns_sfw;">
		<slices></slices>
		<sliceSourceBounds  height="1025.437" y="-1024.427" x="43.793" width="936.414" bottomLeftOrigin="true"></sliceSourceBounds>
	</sfw>
</metadata>
<path stroke="#FFFFFF" stroke-miterlimit="10" d="M756.989,223.381c0,24.708-21.924,44.784-48.979,44.784H316.015
	c-27.057,0-49.004-20.076-49.004-44.784l0,0c0-24.707,21.947-44.783,49.004-44.783h391.996
	C735.065,178.598,756.989,198.674,756.989,223.381L756.989,223.381z M756.989,402.491c0,24.707-21.924,44.782-48.979,44.782H316.015
	c-27.057,0-49.004-20.075-49.004-44.782l0,0c0-24.707,21.947-44.783,49.004-44.783h391.996
	C735.065,357.708,756.989,377.784,756.989,402.491L756.989,402.491z M756.989,581.622c0,24.707-21.924,44.761-48.979,44.761H316.015
	c-27.057,0-49.004-20.054-49.004-44.761l0,0c0-24.73,21.947-44.782,49.004-44.782h391.996
	C735.065,536.84,756.989,556.892,756.989,581.622L756.989,581.622z M801.533-0.51H222.467c-71.622,0-178.174,47.696-178.174,179.108
	v447.785c0,71.991,47.459,179.132,178.174,179.132h44.543v217.976L592.3,805.515h209.233c71.6,0,178.174-47.72,178.174-179.132
	V178.598C979.707,47.186,873.133-0.51,801.533-0.51z M890.62,626.383c0,81.779-68.469,89.217-89.087,89.564H565.33L356.099,856.189
	v-95.437v-44.806h-37.411h-96.221c-81.365,0-88.761-68.771-89.087-89.564V178.598c0-81.778,68.447-89.217,89.087-89.564h579.066
	c14.876,0,89.087,4.328,89.087,89.564V626.383z"/>
<g>
</g>
<g>
</g>
<g>
</g>
<g>
</g>
<g>
</g>
<g>
</g>
</svg>
