<?xml version="1.0" encoding="utf-8"?>
<!-- Generator: Adobe Illustrator 16.0.0, SVG Export Plug-In . SVG Version: 6.00 Build 0)  -->
<!DOCTYPE svg PUBLIC "-//W3C//DTD SVG 1.0//EN" "http://www.w3.org/TR/2001/REC-SVG-20010904/DTD/svg10.dtd" [
	<!ENTITY ns_extend "http://ns.adobe.com/Extensibility/1.0/">
	<!ENTITY ns_ai "http://ns.adobe.com/AdobeIllustrator/10.0/">
	<!ENTITY ns_graphs "http://ns.adobe.com/Graphs/1.0/">
	<!ENTITY ns_vars "http://ns.adobe.com/Variables/1.0/">
	<!ENTITY ns_imrep "http://ns.adobe.com/ImageReplacement/1.0/">
	<!ENTITY ns_sfw "http://ns.adobe.com/SaveForWeb/1.0/">
	<!ENTITY ns_custom "http://ns.adobe.com/GenericCustomNamespace/1.0/">
	<!ENTITY ns_adobe_xpath "http://ns.adobe.com/XPath/1.0/">
]>
<svg version="1.0" id="Layer_1" xmlns:x="&ns_extend;" xmlns:i="&ns_ai;" xmlns:graph="&ns_graphs;"
	 xmlns="http://www.w3.org/2000/svg" xmlns:xlink="http://www.w3.org/1999/xlink" x="0px" y="0px" width="1024px" height="1024px"
	 viewBox="0 0 1024 1024" enable-background="new 0 0 1024 1024" xml:space="preserve">
<metadata>
	<sfw  xmlns="&ns_sfw;">
		<slices></slices>
		<sliceSourceBounds  height="1024.737" y="-1024.55" x="-0.498" width="1025" bottomLeftOrigin="true"></sliceSourceBounds>
	</sfw>
</metadata>
<path stroke="#FFFFFF" stroke-miterlimit="10" d="M823.322,0.312l-620.469,0.1C132.682,4.508,0.002,52.98,0.002,207.385v414.221
	c0,83.209,52.441,207.072,196.883,207.072h60.408v194.986L580.34,828.678l249.924-0.1c67.027-4.146,193.738-52.742,193.738-206.973
	V207.385C1024.002,53.08,894.793,4.508,823.322,0.312z M921.064,621.605c0,91.299-81.211,102.387-93.947,103.486H551.795
	l-191.59,115.672l-0.77-114.83l-162.551-0.842c-85.881,0-93.646-79.514-93.971-103.486V207.385
	c0-91.35,88.502-102.387,102.912-103.535l614.398-0.102c10.34,0.6,100.84,8.842,100.84,103.637V621.605z"/>
<g>
</g>
<g>
</g>
<g>
</g>
<g>
</g>
<g>
</g>
<g>
</g>
</svg>
