<?xml version="1.0" encoding="utf-8"?>
<!-- Generator: Adobe Illustrator 16.0.0, SVG Export Plug-In . SVG Version: 6.00 Build 0)  -->
<!DOCTYPE svg PUBLIC "-//W3C//DTD SVG 1.0//EN" "http://www.w3.org/TR/2001/REC-SVG-20010904/DTD/svg10.dtd" [
	<!ENTITY ns_extend "http://ns.adobe.com/Extensibility/1.0/">
	<!ENTITY ns_ai "http://ns.adobe.com/AdobeIllustrator/10.0/">
	<!ENTITY ns_graphs "http://ns.adobe.com/Graphs/1.0/">
	<!ENTITY ns_vars "http://ns.adobe.com/Variables/1.0/">
	<!ENTITY ns_imrep "http://ns.adobe.com/ImageReplacement/1.0/">
	<!ENTITY ns_sfw "http://ns.adobe.com/SaveForWeb/1.0/">
	<!ENTITY ns_custom "http://ns.adobe.com/GenericCustomNamespace/1.0/">
	<!ENTITY ns_adobe_xpath "http://ns.adobe.com/XPath/1.0/">
]>
<svg version="1.0" id="Layer_1" xmlns:x="&ns_extend;" xmlns:i="&ns_ai;" xmlns:graph="&ns_graphs;"
	 xmlns="http://www.w3.org/2000/svg" xmlns:xlink="http://www.w3.org/1999/xlink" x="0px" y="0px" width="1024px" height="1024px"
	 viewBox="0 0 1024 1024" enable-background="new 0 0 1024 1024" xml:space="preserve">
<metadata>
	<sfw  xmlns="&ns_sfw;">
		<slices></slices>
		<sliceSourceBounds  bottomLeftOrigin="true" width="1023.999" height="1024" y="0" x="0"></sliceSourceBounds>
	</sfw>
</metadata>
<path fill="none" d="M795.02,0.5H410.1v0.096L229.98,0.68C103.24,0.68,0.5,103.359,0.5,230.02v565.119
	C0.5,921.82,103.24,1024.5,229.98,1024.5H614.9v-0.085l180.119-0.075c126.76,0,229.479-102.721,229.479-229.358V229.84
	C1024.5,103.18,921.779,0.5,795.02,0.5z M752.419,586.729H593.826H431.491H272.923c-43.775,0-79.271-33.166-79.271-74.088
	c0-40.942,35.496-74.112,79.271-74.112h158.568h162.335h158.593c43.776,0,79.249,33.169,79.249,74.112
	C831.668,553.562,796.195,586.729,752.419,586.729z"/>
</svg>
