<?xml version="1.0" encoding="utf-8"?>
<!-- Generator: Adobe Illustrator 16.0.0, SVG Export Plug-In . SVG Version: 6.00 Build 0)  -->
<!DOCTYPE svg PUBLIC "-//W3C//DTD SVG 1.0//EN" "http://www.w3.org/TR/2001/REC-SVG-20010904/DTD/svg10.dtd" [
	<!ENTITY ns_extend "http://ns.adobe.com/Extensibility/1.0/">
	<!ENTITY ns_ai "http://ns.adobe.com/AdobeIllustrator/10.0/">
	<!ENTITY ns_graphs "http://ns.adobe.com/Graphs/1.0/">
	<!ENTITY ns_vars "http://ns.adobe.com/Variables/1.0/">
	<!ENTITY ns_imrep "http://ns.adobe.com/ImageReplacement/1.0/">
	<!ENTITY ns_sfw "http://ns.adobe.com/SaveForWeb/1.0/">
	<!ENTITY ns_custom "http://ns.adobe.com/GenericCustomNamespace/1.0/">
	<!ENTITY ns_adobe_xpath "http://ns.adobe.com/XPath/1.0/">
]>
<svg version="1.0" id="Layer_1" xmlns:x="&ns_extend;" xmlns:i="&ns_ai;" xmlns:graph="&ns_graphs;"
	 xmlns="http://www.w3.org/2000/svg" xmlns:xlink="http://www.w3.org/1999/xlink" x="0px" y="0px" width="1024px" height="1024px"
	 viewBox="0 0 1024 1024" enable-background="new 0 0 1024 1024" xml:space="preserve">
<metadata>
	<sfw  xmlns="&ns_sfw;">
		<slices></slices>
		<sliceSourceBounds  height="708.936" y="-866.468" x="0" width="1024.01" bottomLeftOrigin="true"></sliceSourceBounds>
	</sfw>
</metadata>
<path d="M501.808,157.532c-77.338,0-141.436,22.308-159.225,29.145c-0.538,0.202-0.836,0.76-0.711,1.298
	C370.594,319.285,461.729,365.853,513.5,381.939l0.337,0.049h0.048c0.645,0,1.173-0.52,1.173-1.145l-0.548-0.972
	c-23.029-25.913-32.529-61.011-32.934-62.501l-1.145-4.27l3.885-2.153c23.809-13.25,53.626-16.039,74.454-16.039
	c2.961,0,5.653,0.058,8.115,0.145h0.038h0.077c0.615,0,1.154-0.52,1.154-1.145l-0.385-0.827
	c-5.904-10.23-11.616-22.105-16.924-35.289l-0.461-0.548c-8.712-5.442-24.991-13.212-53.126-19.462
	c-28.318-6.288-34.309-9.087-33.78-15.76c0.539-6.855,5.981-8.308,38.838-10.385c3.375-0.202,6.52-0.317,9.587-0.317
	c9.298,0,18.452,0.923,31.635,3.23l0.462-0.019c13.423-3.174,28.442-4.779,44.654-4.779c17.116,0,31.943,1.77,41.386,3.25l1-0.327
	l0.308-0.99c-2.5-13.98-3.308-24.674-3.577-31.184l-0.73-1.019C588.771,164.926,546.616,157.532,501.808,157.532 M161.195,421.085
	c-91.425,0-142.551,7.327-160.291,10.472l-0.779,0.519L0,432.979c28.779,107.06,118.242,170.791,144.974,187.772l0.615,0.173
	l0.395-0.076l0.692-0.731c9.567-31.616,22.404-60.616,38.174-86.193l0.087-1.039l-0.827-0.692
	c-12.106-2.423-29.981-8.202-46.434-22.038c-10.789-9.097-15.885-14.741-13.789-20.414c0.529-1.462,2.404-4.866,8.192-4.866
	c3.231,0,7.885,0.991,14.635,3.135c14.087,4.472,36.693,7.404,55.935,7.404c3.48,0,6.855-0.096,10.038-0.298l0.808-0.385
	c31.847-36.703,65.502-56.491,88.127-66.616c0.48-0.231,0.76-0.731,0.663-1.25c-0.096-0.51-0.528-0.904-1.058-0.934
	C251.485,422.71,204.389,421.085,161.195,421.085 M864.68,548.27c-0.442-0.192-0.942-0.115-1.308,0.231
	c-5.404,5.269-11.5,9.288-18.135,11.942l-2.192,0.865l-2.192-0.904c-0.597-0.25-14.654-6.211-29.251-19.212
	c-0.308-0.288-0.75-0.384-1.135-0.23c-0.384,0.115-0.692,0.462-0.769,0.847c-4.192,23.423-10.692,43.5-18.809,58.078
	c-12.154,21.827-16.115,25.346-20.885,25.346c-2,0-3.865-0.846-5.154-2.403c-3.076-3.597-2.538-10.174,0.577-28.02
	c2.615-14.866,3.789-32.174,3.48-51.463c-0.019-0.462-0.288-0.846-0.711-1.038c-0.423-0.174-0.923-0.077-1.23,0.23
	c-11.52,10.962-22.809,18.039-33.501,21.039c-1.173,0.308-2.423,0.5-3.73,0.5c-9.366,0-21.693-9.308-28.213-14.847
	c-0.25-0.23-0.576-0.327-0.903-0.27c-0.347,0.039-0.615,0.231-0.808,0.5c-13.77,21.962-51.848,102.771,35.635,221.216
	c0.173,0.25,0.481,0.404,0.789,0.442c0.038,0.02,0.076,0.02,0.115,0.02c0.308,0,0.558-0.115,0.769-0.289
	c26.693-23.712,114.811-109.694,128.195-221.407C865.392,548.962,865.122,548.501,864.68,548.27z M309.727,202.917
	c-29.279,11.645-127.925,57.309-167.743,156.022c0,0,6.173,31.174,40.77,31.174l0.337,0.048h264.015c0.52,0,0.972-0.346,1.097-0.865
	c0.134-0.51-0.106-1.039-0.577-1.279c-21.809-11.385-53.8-32.567-82.338-68.876l-0.731-0.433c-7.5-1.125-19.942-2.48-36.635-2.48
	c-4.808,0-9.789,0.125-14.799,0.336c-4.163,0.183-7.971,0.27-11.347,0.27c-11.702,0-22.317-0.615-23.625-8.049
	c-1.27-7.192,7.414-11.76,23.885-17.673c11.077-3.98,24.559-7.347,36.973-9.231l0.855-0.625l-0.02-1.058
	c-12.49-23.183-22.097-48.924-28.577-76.481l-0.577-0.75L309.727,202.917 M553.77,470.307
	c-31.097,16.097-135.406,83.944-172.781,280.813c-0.106,0.5,0.173,1.038,0.663,1.25l0.452,0.096l0.923-0.461
	c34.136-45.693,113.271-124.771,259.938-140.753c0.577-0.058,1.039-0.538,1.039-1.115c0.191-14.039,4.23-42.828,29.308-77.867
	l0.058-1.212c-2.558-4.586-6.327-12.24-9.903-22.75l-0.731-0.73l-1.038,0.163c-9.692,7.164-25.309,17.433-44.693,25.645
	l-0.462,0.423c-14.885,21.886-33.962,38.809-47.327,49.193c-19.636,15.212-24.347,16.481-27.462,16.501
	c-2.712,0-4.981-1.365-6.135-3.654c-2.212-4.27,0.019-9.385,9.846-22.77c7.77-10.5,14.116-24.001,18.097-33.462l-0.096-1.077
	c-5.827-8.722-14.616-29.02-8.039-67.021l-0.462-1.115L553.77,470.307 M645.003,641.387
	c-38.655,3.75-233.303,31.578-268.256,213.543c-0.125,0.615,0.26,1.192,0.866,1.346c14.086,3.058,52.087,10.192,100.568,10.192h0.01
	c60.886,0,149.753-11.5,227.351-66.193l0.48-0.769l-0.269-0.885c-5.942-7.231-17.635-22.731-29.059-45.213l-0.788-0.596l-0.962,0.23
	c-9.308,7.692-25.116,18.731-47.636,27.692c-9.038,3.597-22.5,7.424-29.577,7.424c-6.615,0-8.347-3.712-8.789-5.327
	c-1.692-6.058,4.577-11.039,18.404-19.212c14.654-8.654,34.213-27.231,52.309-49.693l0.192-1.058
	c-7.423-22.75-12-46.443-13.577-70.405l-0.385-0.808L645.003,641.387 M500.75,421.565c-93.156,0-257.13,22.818-308.468,175.629
	l0.327,1.23l0.77,0.27l0.48-0.116c55.674-26.462,118.002-32.02,160.532-32.02c17.702,0,35.702,0.904,53.511,2.712l1.134-0.577
	c4.942-9.27,19.02-33.731,43.203-60.116l0.221-1.154l-0.913-0.75c-6.98-0.895-14.712-1.346-22.741-1.346
	c-12.23,0-25.135,1.038-37.125,3.076c-11.577,1.962-19.635,2.924-24.636,2.924c-6.278,0-9.692-1.914-10.461-5.866
	c-1.097-5.721,3.24-9.635,29.798-20.183c34.511-13.692,66.28-16.558,86.849-16.558c7.519,0,14.778,0.365,21.587,1.086l0.788-0.211
	c21.375-15.606,44.318-27.588,68.241-35.616l0.731-0.75l2-6.472l-0.154-0.952l-0.788-0.519
	C554.231,423.902,530.645,421.565,500.75,421.565 M901.969,420.248c-1.538,0-1.98,0.317-1.98,0.317
	c-0.097,0.337,0.288,1.731,0.442,2.26c10.077,37.654,5.23,73.617,2.653,92.925c-0.23,1.548-0.423,3.01-0.576,4.365l0.308-0.278
	l1.058-0.904c4.961-4.192,94.867-77.79,120.137-98.473C996.163,420.402,907.334,420.248,901.969,420.248 M394.988,601.117
	c-0.173-0.327-0.52-0.539-0.885-0.577c-8.914-0.846-23.212-1.846-40.654-1.846c-60.848,0-169.215,12.423-211.341,95.54
	c-0.163,0.308-0.163,0.692-0.02,1c8.375,17.308,57.453,103.887,202.716,108.117h0.028c0.299,0,0.577-0.115,0.808-0.308
	c0.202-0.23,0.327-0.52,0.347-0.827c0.212-13.423,1.529-41.289,8.202-77.059c0.048-0.347-0.058-0.712-0.298-0.962
	c-0.27-0.27-0.625-0.385-0.981-0.365c-7.096,0.865-14.587,1.308-22.24,1.308c-20.068,0-39.588-3-58.011-8.904
	c-22.068-7.096-28.472-11.25-27.443-17.73c1.145-7.231,11.51-7.231,17.712-7.231c3.51,0,7.809,0.154,12.77,0.48
	c2.865,0.212,6.058,0.289,9.5,0.289c22.991,0,53.943-4.481,78.857-11.462c0.385-0.096,0.683-0.385,0.789-0.77
	c7.865-27.577,18.01-53.693,30.173-77.616C395.181,601.848,395.181,601.463,394.988,601.117z M868.776,430.258
	c-14.327-78.261-54.578-151.906-134.657-211.139c-14.02-10.385-49.347-32.327-78.809-35.597c-0.02,0.539-0.039,1.183-0.039,1.885
	c0,10.115,2.635,37.068,27.405,66.04l2.038,2.317c4.038,4.577,6.135,6.952,6.135,9.038c0,0.462-0.115,0.895-0.308,1.347
	c-0.5,1.058-1.885,1.885-3.039,1.885c-1.038,0-2.192-0.395-4.058-1.433l-0.635-0.385c-9.73-5.817-44.692-24.789-87.193-24.789
	c-5.597,0-11.192,0.336-16.674,0.99c4.962,17.722,21.097,51.559,54.751,80.588c5.174,4.472,7.539,7.674,7.52,10.337
	c-0.02,0.538-0.096,1.038-0.288,1.529c-0.539,1.403-1.75,3.028-5.654,3.028c-1,0-2.192-0.105-3.577-0.346
	c-0.538-0.106-1.038-0.317-2.635-0.942c-20.058-8.058-41.135-12.125-62.136-12.125c-14.846,0-29.635,2.038-43.972,6.134
	c8.442,21.184,28.626,55.655,73.165,70.56c0.538,0.173,1.269,0.346,2.038,0.548c3.308,0.817,6.135,1.548,7.115,3.808
	c0.289,0.702,0.424,1.404,0.424,2.135c0,2.385-1.424,5.049-3,8.02c-0.231,0.413-19.731,37.789-19.731,77.905
	c0,5.423,0.346,10.904,1.154,16.347c53.827-6.202,90.443-60.251,90.809-60.809c1.654-2.77,3.577-5.395,6.25-5.395
	c1.059,0,2.039,0.433,2.809,1.192c1.5,1.519,1.903,4.173,1.903,8.615c0,0.77-0.038,1.597-0.038,2.48l-0.02,1.472
	c0.539,42.761,30.059,72.146,41.309,81.771c40.136-19.875,56.001-80.953,56.155-81.568c0.519-2.308,1.653-7.231,5.403-7.231
	s5.27,4.692,7,11.327l0.25,1.048c11.097,39.973,34.174,63.28,45.213,72.579c20.481-13.626,30.942-37.289,30.904-69.425
	C872.064,453.614,870.969,442.354,868.776,430.258z M759.697,402.873c-18.116,0-32.771-14.606-32.771-32.587
	c0-18.011,14.654-32.606,32.771-32.606c18.115,0,32.789,14.596,32.789,32.606C792.486,388.267,777.812,402.873,759.697,402.873z"/>
<g>
</g>
<g>
</g>
<g>
</g>
<g>
</g>
<g>
</g>
<g>
</g>
</svg>
