<?xml version="1.0" encoding="utf-8"?>
<!-- Generator: Adobe Illustrator 16.0.0, SVG Export Plug-In . SVG Version: 6.00 Build 0)  -->
<!DOCTYPE svg PUBLIC "-//W3C//DTD SVG 1.0//EN" "http://www.w3.org/TR/2001/REC-SVG-20010904/DTD/svg10.dtd" [
	<!ENTITY ns_extend "http://ns.adobe.com/Extensibility/1.0/">
	<!ENTITY ns_ai "http://ns.adobe.com/AdobeIllustrator/10.0/">
	<!ENTITY ns_graphs "http://ns.adobe.com/Graphs/1.0/">
	<!ENTITY ns_vars "http://ns.adobe.com/Variables/1.0/">
	<!ENTITY ns_imrep "http://ns.adobe.com/ImageReplacement/1.0/">
	<!ENTITY ns_sfw "http://ns.adobe.com/SaveForWeb/1.0/">
	<!ENTITY ns_custom "http://ns.adobe.com/GenericCustomNamespace/1.0/">
	<!ENTITY ns_adobe_xpath "http://ns.adobe.com/XPath/1.0/">
]>
<svg version="1.0" id="Layer_1" xmlns:x="&ns_extend;" xmlns:i="&ns_ai;" xmlns:graph="&ns_graphs;"
	 xmlns="http://www.w3.org/2000/svg" xmlns:xlink="http://www.w3.org/1999/xlink" x="0px" y="0px" width="1024px" height="1024px"
	 viewBox="0 0 1024 1024" enable-background="new 0 0 1024 1024" xml:space="preserve">
<metadata>
	<sfw  xmlns="&ns_sfw;">
		<slices></slices>
		<sliceSourceBounds  height="1024" y="-1024" x="0" width="1024" bottomLeftOrigin="true"></sliceSourceBounds>
	</sfw>
</metadata>
<path fill="none" d="M896,320H768v96h128c17.344,0,32,14.656,32,32v448c0,17.344-14.656,32-32,32H448c-17.344,0-32-14.656-32-32V768
	h-96v128c0,70.406,57.594,128,128,128h448c70.406,0,128-57.594,128-128V448C1024,377.594,966.406,320,896,320z M576,0H128
	C57.594,0,0,57.594,0,128v448c0,70.406,57.594,128,128,128h128h224h96c70.406,0,128-57.594,128-128v-96V256V128
	C704,57.594,646.406,0,576,0z M608,576c0,17.344-14.656,32-32,32H128c-17.344,0-32-14.656-32-32V128c0-17.344,14.656-32,32-32h448
	c17.344,0,32,14.656,32,32V576z"/>
<g>
</g>
<g>
</g>
<g>
</g>
<g>
</g>
<g>
</g>
<g>
</g>
</svg>
