<?xml version="1.0" encoding="utf-8"?>
<!-- Generator: Adobe Illustrator 16.0.0, SVG Export Plug-In . SVG Version: 6.00 Build 0)  -->
<!DOCTYPE svg PUBLIC "-//W3C//DTD SVG 1.0//EN" "http://www.w3.org/TR/2001/REC-SVG-20010904/DTD/svg10.dtd" [
	<!ENTITY ns_extend "http://ns.adobe.com/Extensibility/1.0/">
	<!ENTITY ns_ai "http://ns.adobe.com/AdobeIllustrator/10.0/">
	<!ENTITY ns_graphs "http://ns.adobe.com/Graphs/1.0/">
	<!ENTITY ns_vars "http://ns.adobe.com/Variables/1.0/">
	<!ENTITY ns_imrep "http://ns.adobe.com/ImageReplacement/1.0/">
	<!ENTITY ns_sfw "http://ns.adobe.com/SaveForWeb/1.0/">
	<!ENTITY ns_custom "http://ns.adobe.com/GenericCustomNamespace/1.0/">
	<!ENTITY ns_adobe_xpath "http://ns.adobe.com/XPath/1.0/">
]>
<svg version="1.0" id="Layer_1" xmlns:x="&ns_extend;" xmlns:i="&ns_ai;" xmlns:graph="&ns_graphs;"
	 xmlns="http://www.w3.org/2000/svg" xmlns:xlink="http://www.w3.org/1999/xlink" x="0px" y="0px" width="1024px" height="1024px"
	 viewBox="0 0 1024 1024" enable-background="new 0 0 1024 1024" xml:space="preserve">
<metadata>
	<sfw  xmlns="&ns_sfw;">
		<slices></slices>
		<sliceSourceBounds  height="1024" y="-1024" x="0" width="1024" bottomLeftOrigin="true"></sliceSourceBounds>
	</sfw>
</metadata>
<path fill-rule="evenodd" clip-rule="evenodd" fill="none" d="M794.52,0H409.6v0.096L229.48,0.18C102.74,0.18,0,102.859,0,229.52
	v565.121C0,921.319,102.74,1024,229.48,1024H614.4v-0.086l180.119-0.075c126.762,0,229.48-102.719,229.48-229.359V229.34
	C1024,102.679,921.281,0,794.52,0z M711.801,573.72h-132.16h-6.201v5.921v132.16c0,36.479-27.599,66.039-61.739,66.039
	c-34.1,0-61.739-29.561-61.739-66.039v-132.16v-5.921h-5.601H312.22c-36.48,0-66.061-27.64-66.061-61.74
	c0-34.119,29.58-61.76,66.061-61.76h132.14h5.601v-5.86V312.22c0-36.48,27.639-66.061,61.739-66.061
	c34.141,0,61.739,29.58,61.739,66.061v132.14v5.86h6.201h132.16c36.479,0,66.039,27.641,66.039,61.76
	C777.84,546.08,748.279,573.72,711.801,573.72z"/>
<g>
</g>
<g>
</g>
<g>
</g>
<g>
</g>
<g>
</g>
<g>
</g>
</svg>
