<?xml version="1.0" encoding="utf-8"?>
<!-- Generator: Adobe Illustrator 16.0.0, SVG Export Plug-In . SVG Version: 6.00 Build 0)  -->
<!DOCTYPE svg PUBLIC "-//W3C//DTD SVG 1.0//EN" "http://www.w3.org/TR/2001/REC-SVG-20010904/DTD/svg10.dtd" [
	<!ENTITY ns_extend "http://ns.adobe.com/Extensibility/1.0/">
	<!ENTITY ns_ai "http://ns.adobe.com/AdobeIllustrator/10.0/">
	<!ENTITY ns_graphs "http://ns.adobe.com/Graphs/1.0/">
	<!ENTITY ns_vars "http://ns.adobe.com/Variables/1.0/">
	<!ENTITY ns_imrep "http://ns.adobe.com/ImageReplacement/1.0/">
	<!ENTITY ns_sfw "http://ns.adobe.com/SaveForWeb/1.0/">
	<!ENTITY ns_custom "http://ns.adobe.com/GenericCustomNamespace/1.0/">
	<!ENTITY ns_adobe_xpath "http://ns.adobe.com/XPath/1.0/">
]>
<svg version="1.0" id="Layer_1" xmlns:x="&ns_extend;" xmlns:i="&ns_ai;" xmlns:graph="&ns_graphs;"
	 xmlns="http://www.w3.org/2000/svg" xmlns:xlink="http://www.w3.org/1999/xlink" x="0px" y="0px" width="1024px" height="1024px"
	 viewBox="0 0 1024 1024" enable-background="new 0 0 1024 1024" xml:space="preserve">
<metadata>
	<sfw  xmlns="&ns_sfw;">
		<slices></slices>
		<sliceSourceBounds  bottomLeftOrigin="true" width="1023.999" height="1024" y="0.5" x="-0.5"></sliceSourceBounds>
	</sfw>
</metadata>
<path fill="none" d="M794.52,0H409.6v0.096L229.48,0.18C102.74,0.18,0,102.859,0,229.52v565.121C0,921.319,102.74,1024,229.48,1024
	H614.4v-0.086l180.119-0.075c126.762,0,229.479-102.719,229.479-229.358V229.34C1024,102.679,921.281,0,794.52,0z M751.761,586.063
	H593.169h-7.44v7.105v158.592c0,43.775-33.119,79.247-74.087,79.247c-40.921,0-74.087-35.473-74.087-79.247V593.169v-7.105h-6.721
	h-158.57c-43.775,0-79.272-33.167-79.272-74.087c0-40.943,35.496-74.113,79.272-74.113h158.569h6.721v-7.031V272.264
	c0-43.775,33.167-79.272,74.087-79.272c40.969,0,74.087,35.496,74.087,79.272v158.569v7.031h7.44H751.76
	c43.775,0,79.247,33.17,79.247,74.113C831.008,552.896,795.535,586.063,751.761,586.063z"/>
</svg>
