<?xml version="1.0" encoding="utf-8"?>
<!-- Generator: Adobe Illustrator 16.0.0, SVG Export Plug-In . SVG Version: 6.00 Build 0)  -->
<!DOCTYPE svg PUBLIC "-//W3C//DTD SVG 1.0//EN" "http://www.w3.org/TR/2001/REC-SVG-20010904/DTD/svg10.dtd" [
	<!ENTITY ns_extend "http://ns.adobe.com/Extensibility/1.0/">
	<!ENTITY ns_ai "http://ns.adobe.com/AdobeIllustrator/10.0/">
	<!ENTITY ns_graphs "http://ns.adobe.com/Graphs/1.0/">
	<!ENTITY ns_vars "http://ns.adobe.com/Variables/1.0/">
	<!ENTITY ns_imrep "http://ns.adobe.com/ImageReplacement/1.0/">
	<!ENTITY ns_sfw "http://ns.adobe.com/SaveForWeb/1.0/">
	<!ENTITY ns_custom "http://ns.adobe.com/GenericCustomNamespace/1.0/">
	<!ENTITY ns_adobe_xpath "http://ns.adobe.com/XPath/1.0/">
]>
<svg version="1.0" id="Layer_1" xmlns:x="&ns_extend;" xmlns:i="&ns_ai;" xmlns:graph="&ns_graphs;"
	 xmlns="http://www.w3.org/2000/svg" xmlns:xlink="http://www.w3.org/1999/xlink" x="0px" y="0px" width="1024px" height="1024px"
	 viewBox="0 0 1024 1024" enable-background="new 0 0 1024 1024" xml:space="preserve">
<metadata>
	<sfw  xmlns="&ns_sfw;">
		<slices></slices>
		<sliceSourceBounds  y="-993" x="201.678" width="620.645" height="962" bottomLeftOrigin="true"></sliceSourceBounds>
	</sfw>
</metadata>
<path d="M822.322,341.323c0,128.856-116.613,204.104-193.77,253.895c-18.759,12.122-43.396,28.002-54.488,37.941v80.551
	c0,34.275-27.79,62.064-62.064,62.064s-62.064-27.789-62.064-62.064v-93.097c0-57.852,51.594-91.157,111.34-129.705
	c60.974-39.366,136.918-88.339,136.918-149.585c0-175.193-155.389-185.83-186.542-186.193c-30.456,0.363-185.845,11-185.845,186.193
	c0,34.274-27.79,62.064-62.064,62.064c-34.275,0-62.064-27.79-62.064-62.064C201.678,95.854,404.66,31,512,31
	S822.322,95.854,822.322,341.323z M512,868.871c-34.274,0-62.064,27.79-62.064,62.064c0,34.275,27.79,62.064,62.064,62.064
	s62.064-27.789,62.064-62.064C574.064,896.661,546.274,868.871,512,868.871z"/>
<g>
</g>
<g>
</g>
<g>
</g>
<g>
</g>
<g>
</g>
<g>
</g>
</svg>
