<?xml version="1.0" encoding="utf-8"?>
<!-- Generator: Adobe Illustrator 16.0.0, SVG Export Plug-In . SVG Version: 6.00 Build 0)  -->
<!DOCTYPE svg PUBLIC "-//W3C//DTD SVG 1.0//EN" "http://www.w3.org/TR/2001/REC-SVG-20010904/DTD/svg10.dtd" [
	<!ENTITY ns_extend "http://ns.adobe.com/Extensibility/1.0/">
	<!ENTITY ns_ai "http://ns.adobe.com/AdobeIllustrator/10.0/">
	<!ENTITY ns_graphs "http://ns.adobe.com/Graphs/1.0/">
	<!ENTITY ns_vars "http://ns.adobe.com/Variables/1.0/">
	<!ENTITY ns_imrep "http://ns.adobe.com/ImageReplacement/1.0/">
	<!ENTITY ns_sfw "http://ns.adobe.com/SaveForWeb/1.0/">
	<!ENTITY ns_custom "http://ns.adobe.com/GenericCustomNamespace/1.0/">
	<!ENTITY ns_adobe_xpath "http://ns.adobe.com/XPath/1.0/">
]>
<svg version="1.0" id="Layer_1" xmlns:x="&ns_extend;" xmlns:i="&ns_ai;" xmlns:graph="&ns_graphs;"
	 xmlns="http://www.w3.org/2000/svg" xmlns:xlink="http://www.w3.org/1999/xlink" x="0px" y="0px" width="1024px" height="1024px"
	 viewBox="0 0 1024 1024" enable-background="new 0 0 1024 1024" xml:space="preserve">
<metadata>
	<sfw  xmlns="&ns_sfw;">
		<slices></slices>
		<sliceSourceBounds  height="1026.143" y="-1025.07" x="-1.072" width="1026.143" bottomLeftOrigin="true"></sliceSourceBounds>
	</sfw>
</metadata>
<path fill-rule="evenodd" clip-rule="evenodd" fill="none" d="M511.98-1.072C228.615-1.072-1.072,228.615-1.072,511.98
	c0,283.331,229.688,513.09,513.052,513.09c283.331,0,513.09-229.76,513.09-513.09C1025.07,228.615,795.311-1.072,511.98-1.072z
	 M753.369,578.258L556.537,451.322l76.873-34.538c-24.266-38.649-62.953-66.958-109.547-75.19
	c-89.398-15.779-173.966,48.28-188.854,143.117c-14.921,94.836,45.487,184.484,134.885,200.305
	c64.74,11.452,126.869-18.97,161.939-72.65l91.903,66.278c-58.837,90.902-163.874,142.58-273.239,123.255
	c-150.525-26.627-252.232-177.65-227.144-337.371c25.084-159.687,167.483-267.551,318.008-240.962
	c86.25,15.247,156.462,71.362,195.974,146.481l68.569-30.849L753.369,578.258z"/>
<g>
</g>
<g>
</g>
<g>
</g>
<g>
</g>
<g>
</g>
<g>
</g>
</svg>
