<?xml version="1.0" encoding="utf-8"?>
<!-- Generator: Adobe Illustrator 16.0.0, SVG Export Plug-In . SVG Version: 6.00 Build 0)  -->
<!DOCTYPE svg PUBLIC "-//W3C//DTD SVG 1.0//EN" "http://www.w3.org/TR/2001/REC-SVG-20010904/DTD/svg10.dtd" [
	<!ENTITY ns_extend "http://ns.adobe.com/Extensibility/1.0/">
	<!ENTITY ns_ai "http://ns.adobe.com/AdobeIllustrator/10.0/">
	<!ENTITY ns_graphs "http://ns.adobe.com/Graphs/1.0/">
	<!ENTITY ns_vars "http://ns.adobe.com/Variables/1.0/">
	<!ENTITY ns_imrep "http://ns.adobe.com/ImageReplacement/1.0/">
	<!ENTITY ns_sfw "http://ns.adobe.com/SaveForWeb/1.0/">
	<!ENTITY ns_custom "http://ns.adobe.com/GenericCustomNamespace/1.0/">
	<!ENTITY ns_adobe_xpath "http://ns.adobe.com/XPath/1.0/">
]>
<svg version="1.0" id="Layer_1" xmlns:x="&ns_extend;" xmlns:i="&ns_ai;" xmlns:graph="&ns_graphs;"
	 xmlns="http://www.w3.org/2000/svg" xmlns:xlink="http://www.w3.org/1999/xlink" x="0px" y="0px" width="1024px" height="1024px"
	 viewBox="0 0 1024 1024" enable-background="new 0 0 1024 1024" xml:space="preserve">
<metadata>
	<sfw  xmlns="&ns_sfw;">
		<slices></slices>
		<sliceSourceBounds  height="1026.148" y="-1024.574" x="-1.574" width="1026.148" bottomLeftOrigin="true"></sliceSourceBounds>
	</sfw>
</metadata>
<path fill-rule="evenodd" clip-rule="evenodd" fill="none" d="M-1.574,145.012v732.975c0,80.951,65.637,146.588,146.588,146.588
	h732.975c80.93,0,146.586-65.637,146.586-146.588V145.012c0-80.93-65.656-146.586-146.586-146.586H145.014
	C64.062-1.574-1.574,64.082-1.574,145.012z M675.684,294.725c0,20.168-8.314,38.379-21.69,51.423l1.169,1.169L490.977,511.5
	l164.186,164.184l-0.202,0.202c13.188,13.024,21.366,31.108,21.366,51.104c0,39.664-32.148,71.832-71.83,71.832
	c-20,0-38.088-8.186-51.113-21.381l-0.836,0.836L388.342,614.115L285.729,511.5l102.613-102.615l161.451-161.431
	c13.168-15.046,32.5-24.56,54.061-24.56C643.537,222.895,675.684,255.043,675.684,294.725z"/>
<g>
</g>
<g>
</g>
<g>
</g>
<g>
</g>
<g>
</g>
<g>
</g>
</svg>
