<?xml version="1.0" encoding="utf-8"?>
<!-- Generator: Adobe Illustrator 16.0.0, SVG Export Plug-In . SVG Version: 6.00 Build 0)  -->
<!DOCTYPE svg PUBLIC "-//W3C//DTD SVG 1.0//EN" "http://www.w3.org/TR/2001/REC-SVG-20010904/DTD/svg10.dtd" [
	<!ENTITY ns_extend "http://ns.adobe.com/Extensibility/1.0/">
	<!ENTITY ns_ai "http://ns.adobe.com/AdobeIllustrator/10.0/">
	<!ENTITY ns_graphs "http://ns.adobe.com/Graphs/1.0/">
	<!ENTITY ns_vars "http://ns.adobe.com/Variables/1.0/">
	<!ENTITY ns_imrep "http://ns.adobe.com/ImageReplacement/1.0/">
	<!ENTITY ns_sfw "http://ns.adobe.com/SaveForWeb/1.0/">
	<!ENTITY ns_custom "http://ns.adobe.com/GenericCustomNamespace/1.0/">
	<!ENTITY ns_adobe_xpath "http://ns.adobe.com/XPath/1.0/">
]>
<svg version="1.0" id="Layer_1" xmlns:x="&ns_extend;" xmlns:i="&ns_ai;" xmlns:graph="&ns_graphs;"
	 xmlns="http://www.w3.org/2000/svg" xmlns:xlink="http://www.w3.org/1999/xlink" x="0px" y="0px" width="1024px" height="1024px"
	 viewBox="0 0 1024 1024" enable-background="new 0 0 1024 1024" xml:space="preserve">
<metadata>
	<sfw  xmlns="&ns_sfw;">
		<slices></slices>
		<sliceSourceBounds  height="1026.148" y="-1024.574" x="-1.574" width="1026.148" bottomLeftOrigin="true"></sliceSourceBounds>
	</sfw>
</metadata>
<path fill-rule="evenodd" clip-rule="evenodd" fill="none" d="M145.012,1024.574h732.975c80.951,0,146.588-65.637,146.588-146.588
	V145.012c0-80.93-65.637-146.586-146.588-146.586H145.012c-80.93,0-146.586,65.656-146.586,146.586v732.975
	C-1.574,958.938,64.082,1024.574,145.012,1024.574z M294.725,347.316c20.168,0,38.379,8.314,51.423,21.69l1.169-1.169L511.5,532.023
	l164.184-164.186l0.202,0.202c13.024-13.188,31.108-21.366,51.104-21.366c39.664,0,71.832,32.148,71.832,71.83
	c0,20-8.186,38.088-21.381,51.113l0.836,0.836L614.115,634.658L511.5,737.271L408.885,634.658L247.454,473.207
	c-15.046-13.168-24.56-32.5-24.56-54.061C222.895,379.463,255.043,347.316,294.725,347.316z"/>
<g>
</g>
<g>
</g>
<g>
</g>
<g>
</g>
<g>
</g>
<g>
</g>
</svg>
