<?xml version="1.0" encoding="utf-8"?>
<!-- Generator: Adobe Illustrator 16.0.0, SVG Export Plug-In . SVG Version: 6.00 Build 0)  -->
<!DOCTYPE svg PUBLIC "-//W3C//DTD SVG 1.0//EN" "http://www.w3.org/TR/2001/REC-SVG-20010904/DTD/svg10.dtd" [
	<!ENTITY ns_extend "http://ns.adobe.com/Extensibility/1.0/">
	<!ENTITY ns_ai "http://ns.adobe.com/AdobeIllustrator/10.0/">
	<!ENTITY ns_graphs "http://ns.adobe.com/Graphs/1.0/">
	<!ENTITY ns_vars "http://ns.adobe.com/Variables/1.0/">
	<!ENTITY ns_imrep "http://ns.adobe.com/ImageReplacement/1.0/">
	<!ENTITY ns_sfw "http://ns.adobe.com/SaveForWeb/1.0/">
	<!ENTITY ns_custom "http://ns.adobe.com/GenericCustomNamespace/1.0/">
	<!ENTITY ns_adobe_xpath "http://ns.adobe.com/XPath/1.0/">
]>
<svg version="1.0" id="Layer_1" xmlns:x="&ns_extend;" xmlns:i="&ns_ai;" xmlns:graph="&ns_graphs;"
	 xmlns="http://www.w3.org/2000/svg" xmlns:xlink="http://www.w3.org/1999/xlink" x="0px" y="0px" width="1024px" height="1024px"
	 viewBox="0 0 1024 1024" enable-background="new 0 0 1024 1024" xml:space="preserve">
<metadata>
	<sfw  xmlns="&ns_sfw;">
		<slices></slices>
		<sliceSourceBounds  bottomLeftOrigin="true" width="1026.148" height="1026.149" y="-0.075" x="-2.074"></sliceSourceBounds>
	</sfw>
</metadata>
<path d="M1024.574,877.988V145.014c0-80.951-65.637-146.588-146.588-146.588H145.012c-80.93,0-146.586,65.637-146.586,146.588
	v732.975c0,80.93,65.656,146.586,146.586,146.586h732.975C958.938,1024.574,1024.574,958.918,1024.574,877.988z M308.385,771.502
	c0-24.201,9.976-46.055,26.027-61.709l-1.403-1.402l197.023-197.019L333.011,314.351l0.243-0.242
	c-15.826-15.629-25.639-37.331-25.639-61.326c0-47.596,38.578-86.198,86.196-86.198c24,0,45.706,9.824,61.336,25.657l1.003-1.003
	l197.046,196.994l123.136,123.138L653.195,634.51L459.454,828.227c-15.802,18.055-39,29.473-64.873,29.473
	C346.961,857.698,308.385,819.12,308.385,771.502z"/>
</svg>
