<?xml version="1.0" encoding="utf-8"?>
<!-- Generator: Adobe Illustrator 16.0.0, SVG Export Plug-In . SVG Version: 6.00 Build 0)  -->
<!DOCTYPE svg PUBLIC "-//W3C//DTD SVG 1.0//EN" "http://www.w3.org/TR/2001/REC-SVG-20010904/DTD/svg10.dtd" [
	<!ENTITY ns_extend "http://ns.adobe.com/Extensibility/1.0/">
	<!ENTITY ns_ai "http://ns.adobe.com/AdobeIllustrator/10.0/">
	<!ENTITY ns_graphs "http://ns.adobe.com/Graphs/1.0/">
	<!ENTITY ns_vars "http://ns.adobe.com/Variables/1.0/">
	<!ENTITY ns_imrep "http://ns.adobe.com/ImageReplacement/1.0/">
	<!ENTITY ns_sfw "http://ns.adobe.com/SaveForWeb/1.0/">
	<!ENTITY ns_custom "http://ns.adobe.com/GenericCustomNamespace/1.0/">
	<!ENTITY ns_adobe_xpath "http://ns.adobe.com/XPath/1.0/">
]>
<svg version="1.0" id="Layer_1" xmlns:x="&ns_extend;" xmlns:i="&ns_ai;" xmlns:graph="&ns_graphs;"
	 xmlns="http://www.w3.org/2000/svg" xmlns:xlink="http://www.w3.org/1999/xlink" x="0px" y="0px" width="1024px" height="1024px"
	 viewBox="0 0 1024 1024" enable-background="new 0 0 1024 1024" xml:space="preserve">
<metadata>
	<sfw  xmlns="&ns_sfw;">
		<slices></slices>
		<sliceSourceBounds  bottomLeftOrigin="true" width="1026.149" height="1026.149" y="-0.574" x="-1.575"></sliceSourceBounds>
	</sfw>
</metadata>
<path fill="none" d="M878.488-1.075H145.514C64.562-1.075-1.075,64.562-1.075,145.514v732.975
	c0,80.93,65.637,146.586,146.588,146.586h732.975c80.93,0,146.586-65.656,146.586-146.586V145.514
	C1025.074,64.562,959.418-1.075,878.488-1.075z M772.002,715.115c-24.201,0-46.055-9.978-61.708-26.027l-1.404,1.401
	L511.871,493.466L314.851,690.489l-0.242-0.244c-15.629,15.827-37.33,25.641-61.326,25.641c-47.596,0-86.198-38.578-86.198-86.196
	c0-24,9.823-45.705,25.657-61.336l-1.003-1.003l196.994-197.046l123.138-123.135L635.01,370.304l193.716,193.742
	c18.057,15.802,29.473,39,29.473,64.873C858.198,676.539,819.62,715.115,772.002,715.115z"/>
</svg>
