<?xml version="1.0" encoding="utf-8"?>
<!-- Generator: Adobe Illustrator 16.0.0, SVG Export Plug-In . SVG Version: 6.00 Build 0)  -->
<!DOCTYPE svg PUBLIC "-//W3C//DTD SVG 1.0//EN" "http://www.w3.org/TR/2001/REC-SVG-20010904/DTD/svg10.dtd" [
	<!ENTITY ns_extend "http://ns.adobe.com/Extensibility/1.0/">
	<!ENTITY ns_ai "http://ns.adobe.com/AdobeIllustrator/10.0/">
	<!ENTITY ns_graphs "http://ns.adobe.com/Graphs/1.0/">
	<!ENTITY ns_vars "http://ns.adobe.com/Variables/1.0/">
	<!ENTITY ns_imrep "http://ns.adobe.com/ImageReplacement/1.0/">
	<!ENTITY ns_sfw "http://ns.adobe.com/SaveForWeb/1.0/">
	<!ENTITY ns_custom "http://ns.adobe.com/GenericCustomNamespace/1.0/">
	<!ENTITY ns_adobe_xpath "http://ns.adobe.com/XPath/1.0/">
]>
<svg version="1.0" id="Layer_1" xmlns:x="&ns_extend;" xmlns:i="&ns_ai;" xmlns:graph="&ns_graphs;"
	 xmlns="http://www.w3.org/2000/svg" xmlns:xlink="http://www.w3.org/1999/xlink" x="0px" y="0px" width="1024px" height="1024px"
	 viewBox="0 0 1024 1024" enable-background="new 0 0 1024 1024" xml:space="preserve">
<metadata>
	<sfw  xmlns="&ns_sfw;">
		<slices></slices>
		<sliceSourceBounds  height="1026.148" y="-1024.574" x="-1.574" width="1026.148" bottomLeftOrigin="true"></sliceSourceBounds>
	</sfw>
</metadata>
<path fill-rule="evenodd" clip-rule="evenodd" fill="none" d="M877.988-1.574H145.014C64.062-1.574-1.574,64.062-1.574,145.014
	v732.975c0,80.93,65.637,146.586,146.588,146.586h732.975c80.93,0,146.586-65.656,146.586-146.586V145.014
	C1024.574,64.062,958.918-1.574,877.988-1.574z M728.275,675.684c-20.168,0-38.379-8.314-51.423-21.69l-1.169,1.169L511.5,490.977
	L347.316,655.162l-0.202-0.202c-13.024,13.188-31.108,21.366-51.104,21.366c-39.664,0-71.832-32.148-71.832-71.83
	c0-20,8.186-38.088,21.381-51.113l-0.836-0.836l164.162-164.205L511.5,285.729l102.615,102.613l161.431,161.451
	c15.046,13.168,24.56,32.5,24.56,54.061C800.105,643.537,767.957,675.684,728.275,675.684z"/>
<g>
</g>
<g>
</g>
<g>
</g>
<g>
</g>
<g>
</g>
<g>
</g>
</svg>
