<?xml version="1.0" encoding="utf-8"?>
<!-- Generator: Adobe Illustrator 16.0.0, SVG Export Plug-In . SVG Version: 6.00 Build 0)  -->
<!DOCTYPE svg PUBLIC "-//W3C//DTD SVG 1.0//EN" "http://www.w3.org/TR/2001/REC-SVG-20010904/DTD/svg10.dtd" [
	<!ENTITY ns_extend "http://ns.adobe.com/Extensibility/1.0/">
	<!ENTITY ns_ai "http://ns.adobe.com/AdobeIllustrator/10.0/">
	<!ENTITY ns_graphs "http://ns.adobe.com/Graphs/1.0/">
	<!ENTITY ns_vars "http://ns.adobe.com/Variables/1.0/">
	<!ENTITY ns_imrep "http://ns.adobe.com/ImageReplacement/1.0/">
	<!ENTITY ns_sfw "http://ns.adobe.com/SaveForWeb/1.0/">
	<!ENTITY ns_custom "http://ns.adobe.com/GenericCustomNamespace/1.0/">
	<!ENTITY ns_adobe_xpath "http://ns.adobe.com/XPath/1.0/">
]>
<svg version="1.0" id="Layer_1" xmlns:x="&ns_extend;" xmlns:i="&ns_ai;" xmlns:graph="&ns_graphs;"
	 xmlns="http://www.w3.org/2000/svg" xmlns:xlink="http://www.w3.org/1999/xlink" x="0px" y="0px" width="1024px" height="1024px"
	 viewBox="0 0 1024 1024" enable-background="new 0 0 1024 1024" xml:space="preserve">
<metadata>
	<sfw  xmlns="&ns_sfw;">
		<slices></slices>
		<sliceSourceBounds  bottomLeftOrigin="true" width="1026.149" height="1026.149" y="-0.075" x="-2.074"></sliceSourceBounds>
	</sfw>
</metadata>
<path fill="none" d="M-1.574,145.012v732.976c0,80.95,65.637,146.588,146.588,146.588h732.975
	c80.93,0,146.586-65.638,146.586-146.588V145.012c0-80.93-65.656-146.586-146.586-146.586H145.014
	C64.062-1.574-1.574,64.082-1.574,145.012z M714.615,251.499c0,24.202-9.977,46.055-26.027,61.708l1.402,1.403l-197.024,197.02
	l197.024,197.02l-0.242,0.243c15.824,15.629,25.639,37.33,25.639,61.325c0,47.597-38.578,86.198-86.196,86.198
	c-24,0-45.705-9.823-61.336-25.657l-1.003,1.004L369.805,634.767L246.669,511.628L369.805,388.49l193.741-193.717
	c15.802-18.055,39-29.472,64.873-29.472C676.039,165.302,714.615,203.88,714.615,251.499z"/>
</svg>
