<?xml version="1.0" encoding="utf-8"?>
<!-- Generator: Adobe Illustrator 16.0.0, SVG Export Plug-In . SVG Version: 6.00 Build 0)  -->
<!DOCTYPE svg PUBLIC "-//W3C//DTD SVG 1.0//EN" "http://www.w3.org/TR/2001/REC-SVG-20010904/DTD/svg10.dtd" [
	<!ENTITY ns_extend "http://ns.adobe.com/Extensibility/1.0/">
	<!ENTITY ns_ai "http://ns.adobe.com/AdobeIllustrator/10.0/">
	<!ENTITY ns_graphs "http://ns.adobe.com/Graphs/1.0/">
	<!ENTITY ns_vars "http://ns.adobe.com/Variables/1.0/">
	<!ENTITY ns_imrep "http://ns.adobe.com/ImageReplacement/1.0/">
	<!ENTITY ns_sfw "http://ns.adobe.com/SaveForWeb/1.0/">
	<!ENTITY ns_custom "http://ns.adobe.com/GenericCustomNamespace/1.0/">
	<!ENTITY ns_adobe_xpath "http://ns.adobe.com/XPath/1.0/">
]>
<svg version="1.0" id="Layer_1" xmlns:x="&ns_extend;" xmlns:i="&ns_ai;" xmlns:graph="&ns_graphs;"
	 xmlns="http://www.w3.org/2000/svg" xmlns:xlink="http://www.w3.org/1999/xlink" x="0px" y="0px" width="1024px" height="1024px"
	 viewBox="0 0 1024 1024" enable-background="new 0 0 1024 1024" xml:space="preserve">
<metadata>
	<sfw  xmlns="&ns_sfw;">
		<slices></slices>
		<sliceSourceBounds  bottomLeftOrigin="true" width="1026.149" height="1026.148" y="-0.074" x="-2.074"></sliceSourceBounds>
	</sfw>
</metadata>
<path fill="none" d="M145.012,1024.574h732.975c80.95,0,146.588-65.638,146.588-146.588V145.012
	c0-80.93-65.638-146.586-146.588-146.586H145.012c-80.93,0-146.586,65.656-146.586,146.586v732.976
	C-1.574,958.938,64.082,1024.574,145.012,1024.574z M251.499,308.385c24.201,0,46.054,9.977,61.708,26.028l1.403-1.403
	l197.019,197.023l197.02-197.023l0.243,0.243c15.629-15.826,37.33-25.64,61.325-25.64c47.597,0,86.198,38.578,86.198,86.196
	c0,24-9.823,45.706-25.657,61.336l1.004,1.003L634.767,653.195L511.628,776.331L388.49,653.195L194.773,459.454
	c-18.055-15.802-29.472-39-29.472-64.873C165.302,346.961,203.88,308.385,251.499,308.385z"/>
</svg>
