<?xml version="1.0" encoding="utf-8"?>
<!-- Generator: Adobe Illustrator 16.0.0, SVG Export Plug-In . SVG Version: 6.00 Build 0)  -->
<!DOCTYPE svg PUBLIC "-//W3C//DTD SVG 1.0//EN" "http://www.w3.org/TR/2001/REC-SVG-20010904/DTD/svg10.dtd" [
	<!ENTITY ns_extend "http://ns.adobe.com/Extensibility/1.0/">
	<!ENTITY ns_ai "http://ns.adobe.com/AdobeIllustrator/10.0/">
	<!ENTITY ns_graphs "http://ns.adobe.com/Graphs/1.0/">
	<!ENTITY ns_vars "http://ns.adobe.com/Variables/1.0/">
	<!ENTITY ns_imrep "http://ns.adobe.com/ImageReplacement/1.0/">
	<!ENTITY ns_sfw "http://ns.adobe.com/SaveForWeb/1.0/">
	<!ENTITY ns_custom "http://ns.adobe.com/GenericCustomNamespace/1.0/">
	<!ENTITY ns_adobe_xpath "http://ns.adobe.com/XPath/1.0/">
]>
<svg version="1.0" id="Layer_1" xmlns:x="&ns_extend;" xmlns:i="&ns_ai;" xmlns:graph="&ns_graphs;"
	 xmlns="http://www.w3.org/2000/svg" xmlns:xlink="http://www.w3.org/1999/xlink" x="0px" y="0px" width="1024px" height="1024px"
	 viewBox="0 0 1024 1024" enable-background="new 0 0 1024 1024" xml:space="preserve">
<metadata>
	<sfw  xmlns="&ns_sfw;">
		<slices></slices>
		<sliceSourceBounds  height="981.658" y="-1002.828" x="3.238" width="1016.496" bottomLeftOrigin="true"></sliceSourceBounds>
	</sfw>
</metadata>
<path fill="none" d="M1018.768,393.789c-2.637-8.184-10.238-13.783-18.764-13.783h-358.75L530.242,34.953
	c-2.637-8.219-10.238-13.783-18.73-13.783c-8.543-0.016-16.145,5.531-18.766,13.73L381.051,380.006H22.969
	c-8.543,0-16.145,5.582-18.766,13.783c-2.637,8.201,0.258,17.24,7.123,22.309l289.805,213.6l-111.68,346.971
	c-2.619,8.217,0.258,17.258,7.156,22.324c6.9,5.068,16.316,5.068,23.217,0l291.637-214.215l291.07,214.215
	c3.459,2.535,7.533,3.836,11.574,3.836c4.074,0,8.148-1.301,11.607-3.836c6.951-5.102,9.828-14.107,7.191-22.324L721.242,629.697
	l290.369-213.584C1018.527,411.062,1021.404,401.99,1018.768,393.789z"/>
<g>
</g>
<g>
</g>
<g>
</g>
<g>
</g>
<g>
</g>
<g>
</g>
</svg>
